<svg width="800" height="200" viewBox="0 0 800 200" fill="none" xmlns="http://www.w3.org/2000/svg">
<circle opacity="0.32" cx="100.06" cy="100.06" r="79.0602" fill="url(#paint0_radial_0_1)"/>
<g opacity="0.25">
<ellipse opacity="0.25" cx="99.6745" cy="175.147" rx="17.3932" ry="4.34831" fill="#44ADFA"/>
</g>
<g filter="url(#filter0_d_0_1)">
<path d="M118.882 140.395C118.579 149.077 114.067 166.439 98.4403 166.439C88.2317 166.439 81.9406 155.1 80.8758 145.695C80.3107 140.704 82.0871 137.215 83.4499 134.036L111.765 125.405L118.882 140.395Z" fill="white"/>
<mask id="mask0_0_1" style="mask-type:alpha" maskUnits="userSpaceOnUse" x="80" y="125" width="39" height="42">
<path d="M118.882 140.395C118.579 149.077 114.067 166.439 98.4403 166.439C88.2317 166.439 81.9406 155.1 80.8758 145.695C80.3107 140.704 82.0871 137.215 83.4499 134.036L111.765 125.405L118.882 140.395Z" fill="white"/>
</mask>
<g mask="url(#mask0_0_1)">
<path d="M120.109 140.273C119.806 149.144 114.168 166.465 98.5095 166.465C88.2799 166.465 81.9759 155.651 80.9089 146.041C80.3426 140.94 81.6674 138.459 81.6674 138.459C81.6674 138.459 84.0952 145.363 99.2682 144.803C114.441 144.242 118.484 136.959 118.484 136.959L120.109 140.273Z" fill="#98B0DC"/>
</g>
<path d="M99.2666 158.017C95.2624 158.323 92.4936 156.752 90.6403 154.602C88.7771 152.44 87.8349 149.684 87.5301 147.648C87.2681 145.897 87.4779 143.885 88.8055 142.231C90.1323 140.577 92.6218 139.223 97.0429 138.884C102.587 138.46 106.134 139.508 108.301 141.12C110.461 142.729 111.285 144.927 111.332 146.895C111.365 148.274 110.864 150.867 109.098 153.207C107.341 155.534 104.319 157.63 99.2666 158.017Z" fill="#44ADFA" stroke="url(#paint1_linear_0_1)" stroke-width="0.58967"/>
<mask id="mask1_0_1" style="mask-type:alpha" maskUnits="userSpaceOnUse" x="87" y="138" width="25" height="21">
<path d="M99.2891 158.311C91.0759 158.939 87.8602 151.845 87.2386 147.691C86.6993 144.088 88.0826 139.274 97.0204 138.59C108.193 137.735 111.529 142.795 111.627 146.888C111.695 149.768 109.555 157.525 99.2891 158.311Z" fill="#333389"/>
</mask>
<g mask="url(#mask1_0_1)">
<path d="M113.313 141.14C107.966 153.819 92.5174 151.185 85.4615 148.283C86.8062 154.609 89.5955 167.374 89.9948 167.83C90.3941 168.285 107.473 166.694 115.963 165.842C117.307 152.325 118.66 128.46 113.313 141.14Z" fill="url(#paint2_linear_0_1)"/>
</g>
</g>
<g filter="url(#filter1_d_0_1)">
<path d="M122.767 133.479C111.455 135.944 88.3038 134.769 78.142 133.873C65.586 133.136 62.6687 121.48 62.7796 115.744C62.7463 104.008 69.7248 81.9558 97.0519 80.8917C131.271 79.5593 135.969 107.577 136.439 111.738C136.91 115.9 136.906 130.398 122.767 133.479Z" fill="white"/>
<mask id="mask2_0_1" style="mask-type:alpha" maskUnits="userSpaceOnUse" x="62" y="80" width="75" height="55">
<path d="M122.767 133.479C111.455 135.944 88.3036 134.769 78.1418 133.873C65.5857 133.136 62.6685 121.48 62.7794 115.744C62.746 104.008 69.7246 81.9558 97.0517 80.8917C131.27 79.5593 135.969 107.577 136.439 111.738C136.909 115.9 136.906 130.398 122.767 133.479Z" fill="white"/>
</mask>
<g mask="url(#mask2_0_1)">
<path d="M139.922 108.279C106.173 141.201 71.0733 128.593 58.9513 119.446C53.3436 125.802 44.3451 141.172 43.5384 141.633C42.7317 142.095 116.155 159.696 152.967 168.438C162.681 134.668 173.671 75.3575 139.922 108.279Z" fill="#98B0DC"/>
</g>
<path d="M68.8906 116.126L68.3014 116.12L68.8906 116.126C68.909 114.34 69.0336 112.796 69.1535 111.7C69.2134 111.152 69.2721 110.717 69.3156 110.42C69.3373 110.271 69.3552 110.157 69.3676 110.081C69.3738 110.043 69.3786 110.014 69.3818 109.995L69.3854 109.975L69.3862 109.97L69.3863 109.969L69.3863 109.969L69.3864 109.969L69.3864 109.969L69.3896 109.95L69.3917 109.932C70.0129 104.383 73.5704 99.632 79.0605 96.3141C84.5517 92.9956 91.9427 91.1371 100.109 91.3908C108.325 91.6461 115.372 93.1362 120.561 96.4871C125.717 99.8172 129.095 105.022 129.924 112.865C130.581 119.073 128.378 123.084 125.4 125.61C122.392 128.161 118.55 129.23 115.939 129.424C114.526 129.522 107.289 129.816 89.7008 130.202C81.0147 130.392 75.8169 128.109 72.7992 125.21C69.7752 122.305 68.8638 118.708 68.8906 116.126Z" fill="#44ADFA" stroke="url(#paint3_linear_0_1)" stroke-width="1.17934"/>
<mask id="mask3_0_1" style="mask-type:alpha" maskUnits="userSpaceOnUse" x="68" y="90" width="63" height="41">
<path d="M89.7137 130.791C72.1255 131.176 68.2448 121.547 68.3009 116.119C68.3383 112.501 68.8057 109.865 68.8057 109.865C70.0989 98.3141 83.6049 90.2876 100.128 90.801C116.65 91.3143 128.818 96.7947 130.511 112.802C131.865 125.608 121.388 129.611 115.981 130.011C114.553 130.111 107.302 130.406 89.7137 130.791Z" fill="#35378E"/>
</mask>
<g mask="url(#mask3_0_1)">
<path d="M135.687 104.054C108.169 138.292 77.114 126.039 64.992 116.892C59.3843 123.248 44.7575 138.022 43.9508 138.483C43.144 138.944 116.567 156.545 153.379 165.288C163.093 131.517 165.223 67.3055 135.687 104.054Z" fill="url(#paint4_linear_0_1)"/>
</g>
<ellipse cx="84.0343" cy="113.992" rx="5.49484" ry="7.66385" transform="rotate(-2.40331 84.0343 113.992)" fill="#DFF1FF"/>
<ellipse cx="112.42" cy="112.706" rx="5.49484" ry="7.66385" transform="rotate(-2.40331 112.42 112.706)" fill="#DFF1FF"/>
</g>
<g filter="url(#filter2_d_0_1)">
<path d="M134.384 140.576C133.699 138.629 122.616 136.026 120.886 138.017C119.099 149.483 135.083 168.601 138.908 166.908C142.734 165.215 135.068 142.524 134.384 140.576Z" fill="white"/>
<mask id="mask4_0_1" style="mask-type:alpha" maskUnits="userSpaceOnUse" x="120" y="137" width="20" height="31">
<path d="M134.383 140.577C133.699 138.63 122.616 136.027 120.886 138.017C119.098 149.483 135.082 168.602 138.908 166.909C142.733 165.215 135.068 142.524 134.383 140.577Z" fill="#5E76A2"/>
</mask>
<g mask="url(#mask4_0_1)">
<path d="M127.601 135.666C130.322 122.731 117.619 134.546 111.35 135.131C108.62 146.409 135.8 176.848 140.571 169.34C129.799 162.495 124.88 148.601 127.601 135.666Z" fill="#5E76A2"/>
</g>
</g>
<g filter="url(#filter3_d_0_1)">
<path d="M65.1987 140.576C65.8829 138.629 76.9664 136.026 78.6964 138.017C80.4836 149.483 64.4996 168.601 60.6742 166.908C56.8488 165.215 64.5144 142.524 65.1987 140.576Z" fill="white"/>
<mask id="mask5_0_1" style="mask-type:alpha" maskUnits="userSpaceOnUse" x="59" y="137" width="20" height="31">
<path d="M65.1989 140.577C65.8832 138.63 76.9667 136.027 78.6966 138.017C80.4839 149.483 64.4999 168.602 60.6744 166.909C56.849 165.215 64.5147 142.524 65.1989 140.577Z" fill="#5E76A2"/>
</mask>
<g mask="url(#mask5_0_1)">
<path d="M71.9811 135.666C69.2604 122.731 81.9637 134.546 88.2326 135.131C90.9622 146.409 63.7827 176.848 59.0117 169.34C69.7837 162.495 74.7018 148.601 71.9811 135.666Z" fill="#5E76A2"/>
</g>
</g>
<mask id="mask6_0_1" style="mask-type:alpha" maskUnits="userSpaceOnUse" x="226" y="123" width="82" height="74">
<path d="M226.168 196.488L307.939 151.905L288.662 123.841L235.576 187.264L240.687 184.758L226.168 196.488Z" fill="#D9D9D9"/>
</mask>
<g mask="url(#mask6_0_1)">
<circle opacity="0.3" cx="42.4663" cy="42.4663" r="42.4663" transform="matrix(-0.952842 -0.303468 -0.303468 0.952842 304.946 134.778)" fill="url(#paint5_linear_0_1)"/>
<circle opacity="0.4" cx="42.4663" cy="42.4663" r="42.4663" transform="matrix(-0.952842 -0.303468 -0.303468 0.952842 316.534 126.608)" fill="url(#paint6_linear_0_1)"/>
<circle opacity="0.5" cx="42.4663" cy="42.4663" r="42.4663" transform="matrix(-0.952842 -0.303468 -0.303468 0.952842 325.942 117.383)" fill="url(#paint7_linear_0_1)"/>
<circle opacity="0.6" cx="42.4663" cy="42.4663" r="42.4663" transform="matrix(-0.952842 -0.303468 -0.303468 0.952842 342.705 115.534)" fill="url(#paint8_linear_0_1)"/>
<circle opacity="0.7" cx="42.4663" cy="42.4663" r="42.4663" transform="matrix(-0.952842 -0.303468 -0.303468 0.952842 344.727 96.7693)" fill="url(#paint9_linear_0_1)"/>
<circle opacity="0.8" cx="42.4663" cy="42.4663" r="42.4663" transform="matrix(-0.952842 -0.303468 -0.303468 0.952842 365.928 86.6287)" fill="url(#paint10_linear_0_1)"/>
</g>
<path d="M351.642 143.899C336.376 151.017 303.416 165.991 293.708 168.937C301.438 163.852 349.424 144.091 351.642 143.899Z" fill="#D9D9D9"/>
<path d="M320.859 150.269C304.71 159.201 269.796 178.067 259.334 182.071C267.33 175.978 318.411 150.674 320.859 150.269Z" fill="#D9D9D9"/>
<path d="M274.954 132.37C264.075 147.277 240.368 179.103 232.569 187.144C237.251 178.248 272.904 133.769 274.954 132.37Z" fill="#D9D9D9"/>
<path d="M282.226 96.9912C275.134 110.461 259.612 139.243 254.264 146.615C257.07 138.675 280.749 98.3117 282.226 96.9912Z" fill="#D9D9D9"/>
<g filter="url(#filter4_d_0_1)">
<path d="M323.855 155.21C328.554 157.348 333.345 136.166 331.07 130.881L325.394 125.996L323.093 138.127C320.955 146.458 321.673 154.217 323.855 155.21Z" fill="white"/>
<mask id="mask7_0_1" style="mask-type:alpha" maskUnits="userSpaceOnUse" x="321" y="125" width="11" height="31">
<path d="M323.855 155.21C328.554 157.348 333.345 136.166 331.07 130.881L325.394 125.996L323.093 138.127C320.955 146.458 321.673 154.217 323.855 155.21Z" fill="white"/>
</mask>
<g mask="url(#mask7_0_1)">
<path d="M321.006 155.724C325.672 157.804 331.209 135.485 329.091 130.032L323.531 125.111L320.807 137.879C318.374 146.665 318.839 154.758 321.006 155.724Z" fill="#5E76A2"/>
</g>
</g>
<g filter="url(#filter5_d_0_1)">
<path d="M285.866 120.85C282.906 129.297 283.534 146.154 300.408 151.528C311.431 155.039 321.504 146.906 325.373 138.733C327.427 134.395 325.604 127.95 321.872 124.255C318.139 120.56 297.886 109.687 297.886 109.687C297.886 109.687 288.827 112.404 285.866 120.85Z" fill="white"/>
<mask id="mask8_0_1" style="mask-type:alpha" maskUnits="userSpaceOnUse" x="284" y="109" width="43" height="44">
<path d="M285.866 120.85C282.906 129.296 283.534 146.153 300.408 151.527C311.431 155.038 321.504 146.906 325.373 138.733C327.427 134.395 325.604 127.95 321.872 124.255C318.139 120.56 297.886 109.687 297.886 109.687C297.886 109.687 288.827 112.404 285.866 120.85Z" fill="white"/>
</mask>
<g mask="url(#mask8_0_1)">
<path d="M286.437 120.035C284.066 126.814 284.725 142.876 297.91 149.59C311.095 156.305 320.88 150.257 325.087 144.948C329.294 139.638 327.441 134.735 327.441 134.735C327.441 134.735 323.122 140.303 306.889 133.221C290.657 126.14 289.613 112.444 289.613 112.444L286.437 120.035Z" fill="#98B0DC"/>
</g>
<path d="M301.594 146.78C305.508 148.898 308.952 148.759 311.702 147.694C314.468 146.621 316.556 144.6 317.706 142.931C318.688 141.504 319.31 139.634 318.67 137.565C318.027 135.487 316.088 133.13 311.768 130.792C306.352 127.862 302.339 127.171 299.489 127.617C296.654 128.061 294.93 129.636 294.075 131.346C293.476 132.544 292.897 135.074 293.697 137.967C294.492 140.844 296.658 144.109 301.594 146.78Z" fill="url(#paint11_linear_0_1)" stroke="url(#paint12_linear_0_1)" stroke-width="0.711681"/>
<mask id="mask9_0_1" style="mask-type:alpha" maskUnits="userSpaceOnUse" x="292" y="127" width="28" height="22">
<path d="M301.417 147.088C309.434 151.426 315.641 146.556 318.003 143.125C320.053 140.148 320.67 135.205 311.945 130.484C301.039 124.583 295.561 127.577 293.753 131.195C292.48 133.741 291.395 141.666 301.417 147.088Z" fill="#333389"/>
</mask>
<g mask="url(#mask9_0_1)">
<path d="M294.455 125.276C294.547 139.081 311.222 143.825 319.548 144.472C315.549 149.515 307.402 159.656 306.809 159.88C306.216 160.104 289.663 150.83 281.46 146.164C285.754 133.45 294.364 111.471 294.455 125.276Z" fill="url(#paint13_linear_0_1)"/>
</g>
</g>
<g filter="url(#filter6_d_0_1)">
<path d="M289.818 127.6C291.417 126.829 293.38 116.972 291.704 115.652C282.189 115.146 266.647 130.761 268.113 133.927C269.579 137.093 288.219 128.372 289.818 127.6Z" fill="white"/>
<mask id="mask10_0_1" style="mask-type:alpha" maskUnits="userSpaceOnUse" x="268" y="115" width="25" height="20">
<path d="M289.818 127.6C291.417 126.829 293.381 116.972 291.704 115.652C282.189 115.146 266.647 130.761 268.114 133.927C269.58 137.093 288.219 128.372 289.818 127.6Z" fill="#5E76A2"/>
</mask>
<g mask="url(#mask10_0_1)">
<path d="M262 137.578C262 137.578 298.107 139.893 303.611 132.734C306.802 128.584 292.004 115.086 292.004 115.086C292.004 115.086 291.655 122.274 287.939 125.766C284.223 129.258 262 137.578 262 137.578Z" fill="#5E76A2"/>
</g>
</g>
<g filter="url(#filter7_d_0_1)">
<path d="M297.434 122.979C309.023 129.27 334.688 135.237 346.072 137.434C360.023 140.559 366.857 128.529 368.53 122.123C372.237 109.098 371.509 82.413 341.981 72.6472C305.007 60.4184 291.11 90.0622 289.294 94.5364C287.478 99.0106 282.947 115.115 297.434 122.979Z" fill="white"/>
<mask id="mask11_0_1" style="mask-type:alpha" maskUnits="userSpaceOnUse" x="287" y="69" width="84" height="69">
<path d="M297.434 122.979C309.023 129.27 334.688 135.237 346.072 137.434C360.023 140.558 366.857 128.528 368.53 122.123C372.237 109.098 371.509 82.4128 341.981 72.6469C305.007 60.4182 291.11 90.0619 289.294 94.5362C287.478 99.0104 282.947 115.115 297.434 122.979Z" fill="white"/>
</mask>
<g mask="url(#mask11_0_1)">
<path d="M284.96 99.8192C310.901 123.811 349.831 135.736 365.938 129.384C370.078 138.205 380.719 156.157 381.457 156.922C382.194 157.688 296.459 154.174 253.499 152.321C253.448 111.761 247.617 65.2827 284.96 99.8192Z" fill="#98B0DC"/>
</g>
<path d="M308.173 118.176L308.171 118.175C305.232 116.957 301.215 114.284 298.705 110.2C296.182 106.095 295.2 100.592 298.315 93.794C302.186 85.3421 308.013 80.7018 315.196 78.8805C322.358 77.065 330.829 78.0607 339.996 80.7847C349.191 83.5171 356.794 88.3052 361.754 94.0635C366.711 99.8192 369.043 106.567 367.631 113.189L367.627 113.215C367.624 113.239 367.618 113.274 367.611 113.32C367.596 113.412 367.573 113.548 367.542 113.722C367.48 114.071 367.384 114.576 367.248 115.205C366.976 116.461 366.544 118.212 365.904 120.191C364.925 123.217 362.454 127.034 357.785 129.227C353.112 131.422 346.294 131.964 336.673 128.546C317.553 121.755 309.709 118.805 308.173 118.176Z" stroke="white" stroke-width="0.711681"/>
<path d="M364.888 119.863L365.565 120.082L364.888 119.863C365.515 117.924 365.938 116.208 366.204 114.979C366.337 114.364 366.431 113.872 366.491 113.535C366.521 113.366 366.543 113.236 366.557 113.15C366.564 113.106 366.569 113.074 366.572 113.052L366.576 113.029L366.577 113.023L366.577 113.022L366.577 113.022L366.577 113.022L366.577 113.022L366.58 112.999L366.585 112.977C367.914 106.76 365.749 100.338 360.945 94.7602C356.14 89.1813 348.725 84.492 339.692 81.808C330.604 79.1073 322.35 78.1683 315.459 79.9153C308.612 81.651 303.033 86.057 299.285 94.2386C296.32 100.71 297.276 105.837 299.614 109.641C301.978 113.487 305.792 116.033 308.578 117.188C310.089 117.806 317.907 120.748 337.03 127.54C346.47 130.893 352.983 130.303 357.331 128.261C361.688 126.215 363.984 122.658 364.888 119.863Z" fill="url(#paint14_linear_0_1)" stroke="url(#paint15_linear_0_1)" stroke-width="1.42336"/>
<mask id="mask12_0_1" style="mask-type:alpha" maskUnits="userSpaceOnUse" x="296" y="78" width="72" height="53">
<path d="M336.792 128.211C355.914 135.003 363.658 125.98 365.565 120.082C366.837 116.15 367.281 113.126 367.281 113.126C370.056 100.146 358.176 86.5583 339.895 81.1258C321.614 75.6933 306.299 77.2186 298.638 93.9422C292.509 107.321 302.531 115.453 308.308 117.846C309.835 118.471 317.669 121.419 336.792 128.211Z" fill="#35378E"/>
</mask>
<g mask="url(#mask12_0_1)">
<path d="M296.144 82.5908C313.859 129.646 352.314 127.631 368.909 122.117C372.744 131.033 383.403 152.335 384.119 153.127C384.836 153.919 298.04 146.37 254.552 142.497C256.166 102.401 277.129 32.0853 296.144 82.5908Z" fill="url(#paint16_linear_0_1)"/>
</g>
<path d="M357.319 104.535L347.595 106.29L356.404 113.05" stroke="#F6F5F9" stroke-width="4.98176" stroke-linecap="round" stroke-linejoin="round"/>
<path d="M320.282 92.7389L327.2 99.7944L316.104 100.214" stroke="#F6F5F9" stroke-width="4.98176" stroke-linecap="round" stroke-linejoin="round"/>
</g>
<circle opacity="0.32" cx="500.06" cy="100.06" r="79.0602" fill="url(#paint17_radial_0_1)"/>
<path d="M510.099 160.395C506.55 158.078 503.964 157.221 499.728 157.211C495.457 157.2 492.842 158.059 489.262 160.395C487.861 161.31 495.336 196.552 499.728 196.552C504.119 196.552 511.501 161.31 510.099 160.395Z" fill="url(#paint18_linear_0_1)"/>
<g filter="url(#filter8_d_0_1)">
<path d="M518.882 140.395C518.579 149.077 514.067 166.439 498.44 166.439C488.232 166.439 481.941 155.1 480.876 145.695C480.311 140.704 482.087 137.215 483.45 134.036L511.765 125.405L518.882 140.395Z" fill="white"/>
<mask id="mask13_0_1" style="mask-type:alpha" maskUnits="userSpaceOnUse" x="480" y="125" width="39" height="42">
<path d="M518.882 140.395C518.579 149.077 514.067 166.439 498.44 166.439C488.232 166.439 481.941 155.1 480.876 145.695C480.311 140.704 482.087 137.215 483.45 134.036L511.765 125.405L518.882 140.395Z" fill="white"/>
</mask>
<g mask="url(#mask13_0_1)">
<path d="M520.109 140.273C519.806 149.144 514.168 166.465 498.51 166.465C488.28 166.465 481.976 155.651 480.909 146.041C480.343 140.94 481.667 138.459 481.667 138.459C481.667 138.459 484.095 145.363 499.268 144.803C514.441 144.242 518.484 136.959 518.484 136.959L520.109 140.273Z" fill="#98B0DC"/>
</g>
<path d="M499.267 158.017C495.262 158.323 492.494 156.752 490.64 154.602C488.777 152.44 487.835 149.684 487.53 147.648C487.268 145.897 487.478 143.885 488.806 142.231C490.132 140.577 492.622 139.223 497.043 138.884C502.587 138.46 506.134 139.508 508.301 141.12C510.461 142.729 511.285 144.927 511.332 146.895C511.365 148.274 510.864 150.867 509.098 153.207C507.341 155.534 504.319 157.63 499.267 158.017Z" fill="#44ADFA" stroke="url(#paint19_linear_0_1)" stroke-width="0.58967"/>
<mask id="mask14_0_1" style="mask-type:alpha" maskUnits="userSpaceOnUse" x="487" y="138" width="25" height="21">
<path d="M499.289 158.311C491.076 158.939 487.86 151.845 487.239 147.691C486.699 144.088 488.083 139.274 497.02 138.59C508.193 137.735 511.529 142.795 511.627 146.888C511.695 149.768 509.555 157.525 499.289 158.311Z" fill="#333389"/>
</mask>
<g mask="url(#mask14_0_1)">
<path d="M513.313 141.14C507.966 153.819 492.517 151.185 485.461 148.283C486.806 154.609 489.595 167.374 489.995 167.83C490.394 168.285 507.473 166.694 515.963 165.842C517.307 152.325 518.66 128.46 513.313 141.14Z" fill="url(#paint20_linear_0_1)"/>
</g>
</g>
<g filter="url(#filter9_d_0_1)">
<path d="M522.767 133.487C511.456 135.952 488.304 134.777 478.142 133.881C465.586 133.143 462.669 121.487 462.78 115.751C462.746 104.015 469.725 81.9634 497.052 80.8993C531.271 79.5668 535.969 107.585 536.439 111.746C536.91 115.907 536.906 130.406 522.767 133.487Z" fill="white"/>
<mask id="mask15_0_1" style="mask-type:alpha" maskUnits="userSpaceOnUse" x="462" y="80" width="75" height="55">
<path d="M522.767 133.487C511.455 135.952 488.304 134.777 478.142 133.881C465.586 133.143 462.669 121.487 462.78 115.751C462.746 104.015 469.725 81.9634 497.052 80.8993C531.271 79.5668 535.969 107.585 536.439 111.746C536.91 115.907 536.906 130.406 522.767 133.487Z" fill="white"/>
</mask>
<g mask="url(#mask15_0_1)">
<path d="M539.923 108.287C506.174 141.209 471.074 128.601 458.952 119.454C453.344 125.809 444.346 141.18 443.539 141.641C442.732 142.102 516.155 159.703 552.967 168.446C562.681 134.676 573.671 75.3651 539.923 108.287Z" fill="#98B0DC"/>
</g>
<path d="M468.891 116.133L468.302 116.127L468.891 116.133C468.909 114.348 469.034 112.804 469.154 111.708C469.214 111.16 469.272 110.724 469.316 110.427C469.338 110.279 469.355 110.165 469.368 110.088C469.374 110.05 469.379 110.022 469.382 110.003L469.386 109.982L469.386 109.977L469.387 109.976L469.387 109.976L469.387 109.976L469.387 109.976L469.39 109.958L469.392 109.939C470.013 104.391 473.571 99.6396 479.061 96.3217C484.552 93.0032 491.943 91.1447 500.109 91.3984C508.325 91.6536 515.372 93.1438 520.561 96.4947C525.717 99.8248 529.096 105.03 529.925 112.872C530.581 119.081 528.378 123.092 525.4 125.617C522.392 128.169 518.551 129.237 515.939 129.431C514.526 129.529 507.29 129.824 489.701 130.209C481.015 130.399 475.817 128.117 472.799 125.218C469.775 122.312 468.864 118.715 468.891 116.133Z" fill="#44ADFA" stroke="url(#paint21_linear_0_1)" stroke-width="1.17934"/>
<mask id="mask16_0_1" style="mask-type:alpha" maskUnits="userSpaceOnUse" x="468" y="90" width="63" height="41">
<path d="M489.714 130.798C472.126 131.183 468.245 121.554 468.301 116.127C468.339 112.509 468.806 109.873 468.806 109.873C470.099 98.3217 483.605 90.2952 500.128 90.8085C516.65 91.3218 528.819 96.8023 530.511 112.81C531.865 125.616 521.389 129.618 515.981 130.019C514.554 130.118 507.302 130.413 489.714 130.798Z" fill="#35378E"/>
</mask>
<g mask="url(#mask16_0_1)">
<path d="M535.687 104.062C508.169 138.3 477.115 126.047 464.993 116.9C459.385 123.255 444.758 138.029 443.951 138.49C443.145 138.951 516.567 156.552 553.38 165.295C563.093 131.525 565.223 67.3131 535.687 104.062Z" fill="url(#paint22_linear_0_1)"/>
</g>
<ellipse cx="484.035" cy="114" rx="5.49484" ry="7.66385" transform="rotate(-2.40331 484.035 114)" fill="#DFF1FF"/>
<ellipse cx="512.421" cy="112.713" rx="5.49484" ry="7.66385" transform="rotate(-2.40331 512.421 112.713)" fill="#DFF1FF"/>
</g>
<g filter="url(#filter10_d_0_1)">
<path d="M523.842 135.252C522.509 136.828 525.876 147.704 528.469 148.188C539.261 143.923 547.655 120.46 544.258 118.018C540.861 115.576 525.175 133.676 523.842 135.252Z" fill="white"/>
<mask id="mask17_0_1" style="mask-type:alpha" maskUnits="userSpaceOnUse" x="523" y="117" width="23" height="32">
<path d="M523.842 135.252C522.509 136.828 525.877 147.704 528.469 148.188C539.262 143.923 547.655 120.46 544.258 118.018C540.861 115.576 525.175 133.676 523.842 135.252Z" fill="#5E76A2"/>
</mask>
<g mask="url(#mask17_0_1)">
<path d="M523.041 143.587C510.51 147.79 527.129 152.763 530.808 157.873C541.916 154.516 554.403 115.666 545.513 115.353C545.064 128.108 535.573 139.384 523.041 143.587Z" fill="#5E76A2"/>
</g>
</g>
<g filter="url(#filter11_d_0_1)">
<path d="M475.569 135.252C476.902 136.828 473.534 147.704 470.942 148.188C460.149 143.923 451.756 120.46 455.153 118.018C458.55 115.576 474.236 133.676 475.569 135.252Z" fill="white"/>
<mask id="mask18_0_1" style="mask-type:alpha" maskUnits="userSpaceOnUse" x="454" y="117" width="22" height="32">
<path d="M475.568 135.252C476.901 136.828 473.534 147.704 470.941 148.188C460.149 143.923 451.755 120.46 455.152 118.018C458.549 115.576 474.235 133.676 475.568 135.252Z" fill="#5E76A2"/>
</mask>
<g mask="url(#mask18_0_1)">
<path d="M476.369 143.587C488.901 147.79 472.281 152.763 468.603 157.873C457.494 154.516 445.007 115.666 453.897 115.353C454.346 128.108 463.837 139.384 476.369 143.587Z" fill="#5E76A2"/>
</g>
</g>
<path d="M452.148 90.6335C451.434 103.357 449.631 130.686 448.124 138.212C447.497 131.24 451.483 92.1809 452.148 90.6335Z" fill="#D9D9D9"/>
<path d="M548.746 73.2327C549.459 85.9564 551.262 113.285 552.77 120.812C553.396 113.839 549.411 74.78 548.746 73.2327Z" fill="#D9D9D9"/>
<path d="M468.035 45.2402C467.322 57.964 465.519 85.2929 464.012 92.8191C463.385 85.8467 467.37 46.7876 468.035 45.2402Z" fill="#D9D9D9"/>
<path d="M528.319 34.6484C529.032 47.3722 530.835 74.7011 532.343 82.2273C532.969 75.2549 528.984 36.1958 528.319 34.6484Z" fill="#D9D9D9"/>
<g opacity="0.32">
<circle cx="700.06" cy="100.06" r="79.0602" fill="url(#paint23_radial_0_1)"/>
<circle cx="700.06" cy="100.06" r="79.0602" fill="url(#paint24_radial_0_1)"/>
</g>
<g opacity="0.25">
<ellipse opacity="0.2" cx="699.674" cy="175.147" rx="17.3932" ry="4.34831" fill="#FE9E15"/>
</g>
<g filter="url(#filter12_d_0_1)">
<path d="M718.882 140.395C718.579 149.077 714.067 166.439 698.44 166.439C688.232 166.439 681.941 155.1 680.876 145.695C680.311 140.704 682.087 137.215 683.45 134.036L711.765 125.405L718.882 140.395Z" fill="white"/>
<mask id="mask19_0_1" style="mask-type:alpha" maskUnits="userSpaceOnUse" x="680" y="125" width="39" height="42">
<path d="M718.882 140.395C718.579 149.077 714.067 166.439 698.44 166.439C688.232 166.439 681.941 155.1 680.876 145.695C680.311 140.704 682.087 137.215 683.45 134.036L711.765 125.405L718.882 140.395Z" fill="white"/>
</mask>
<g mask="url(#mask19_0_1)">
<path d="M720.109 140.273C719.806 149.144 714.168 166.465 698.51 166.465C688.28 166.465 681.976 155.651 680.909 146.041C680.343 140.94 681.667 138.459 681.667 138.459C681.667 138.459 684.095 145.363 699.268 144.803C714.441 144.242 718.484 136.959 718.484 136.959L720.109 140.273Z" fill="#98B0DC"/>
</g>
<path d="M699.267 158.017C695.262 158.323 692.494 156.752 690.64 154.602C688.777 152.44 687.835 149.684 687.53 147.648C687.268 145.897 687.478 143.885 688.806 142.231C690.132 140.577 692.622 139.223 697.043 138.884C702.587 138.46 706.134 139.508 708.301 141.12C710.461 142.729 711.285 144.927 711.332 146.895C711.365 148.274 710.864 150.867 709.098 153.207C707.341 155.534 704.319 157.63 699.267 158.017Z" fill="url(#paint25_linear_0_1)" stroke="#EA8A00" stroke-width="0.58967"/>
<mask id="mask20_0_1" style="mask-type:alpha" maskUnits="userSpaceOnUse" x="687" y="138" width="25" height="21">
<path d="M699.289 158.311C691.076 158.939 687.86 151.845 687.239 147.691C686.699 144.088 688.083 139.274 697.02 138.59C708.193 137.735 711.529 142.795 711.627 146.888C711.695 149.768 709.555 157.525 699.289 158.311Z" fill="#333389"/>
</mask>
<g mask="url(#mask20_0_1)">
<path d="M713.313 141.14C707.966 153.819 692.517 151.185 685.461 148.283C686.806 154.609 689.595 167.374 689.995 167.83C690.394 168.285 707.473 166.694 715.963 165.842C717.307 152.325 718.66 128.46 713.313 141.14Z" fill="#EA8A00"/>
</g>
</g>
<g filter="url(#filter13_d_0_1)">
<path d="M722.708 136.288C711.354 138.551 688.227 136.965 678.083 135.889C665.542 134.929 662.832 123.223 663.045 117.49C663.22 105.755 670.588 83.8308 697.93 83.2518C732.167 82.5267 736.367 110.624 736.764 114.793C737.16 118.962 736.9 133.458 722.708 136.288Z" fill="white"/>
<mask id="mask21_0_1" style="mask-type:alpha" maskUnits="userSpaceOnUse" x="663" y="83" width="74" height="55">
<path d="M722.708 136.288C711.354 138.551 688.227 136.965 678.083 135.889C665.542 134.929 662.832 123.223 663.045 117.49C663.219 105.755 670.588 83.8308 697.93 83.2518C732.167 82.5267 736.367 110.624 736.764 114.793C737.16 118.962 736.899 133.458 722.708 136.288Z" fill="white"/>
</mask>
<g mask="url(#mask21_0_1)">
<path d="M740.308 111.396C705.98 143.714 671.109 130.485 659.152 121.124C653.432 127.379 644.162 142.588 643.347 143.034C642.533 143.481 715.632 162.382 752.283 171.777C762.594 138.184 774.635 79.0779 740.308 111.396Z" fill="#98B0DC"/>
</g>
<path d="M669.148 117.981L668.559 117.964L669.148 117.981C669.198 116.195 669.35 114.654 669.489 113.56C669.559 113.014 669.625 112.579 669.674 112.283C669.699 112.135 669.719 112.021 669.732 111.945C669.739 111.907 669.744 111.878 669.748 111.86L669.752 111.839L669.753 111.834L669.753 111.833L669.753 111.833L669.753 111.833L669.753 111.833L669.757 111.815L669.759 111.796C670.479 106.26 674.12 101.572 679.668 98.3525C685.217 95.132 692.64 93.4049 700.801 93.8035C709.01 94.2044 716.03 95.8194 721.158 99.2619C726.255 102.683 729.54 107.947 730.23 115.803C730.776 122.022 728.502 125.993 725.48 128.466C722.427 130.963 718.568 131.964 715.953 132.111C714.539 132.184 707.298 132.35 689.705 132.423C681.017 132.46 675.861 130.085 672.895 127.133C669.923 124.174 669.075 120.561 669.148 117.981Z" fill="url(#paint26_linear_0_1)" stroke="#EA8A00" stroke-width="1.17934"/>
<mask id="mask22_0_1" style="mask-type:alpha" maskUnits="userSpaceOnUse" x="668" y="93" width="63" height="41">
<path d="M689.708 133.013C672.115 133.086 668.406 123.389 668.559 117.964C668.66 114.347 669.174 111.72 669.174 111.72C670.672 100.193 684.318 92.4076 700.829 93.214C717.34 94.0204 729.409 99.7159 730.818 115.751C731.944 128.579 721.398 132.395 715.984 132.699C714.556 132.773 707.3 132.94 689.708 133.013Z" fill="#35378E"/>
</mask>
<g mask="url(#mask22_0_1)">
<path d="M736.148 107.096C708.027 140.841 677.195 128.039 665.237 118.678C659.517 124.933 644.63 139.445 643.816 139.891C643.001 140.338 716.1 159.239 752.751 168.634C763.063 135.041 766.331 70.8775 736.148 107.096Z" fill="#F95757"/>
<path d="M736.148 107.096C708.027 140.841 677.195 128.039 665.237 118.678C659.517 124.933 644.63 139.445 643.816 139.891C643.001 140.338 716.1 159.239 752.751 168.634C763.063 135.041 766.331 70.8775 736.148 107.096Z" fill="#EA8A00"/>
</g>
<rect x="674.722" y="110.201" width="18.7122" height="6.02595" rx="3.01298" transform="rotate(2.16189 674.722 110.201)" fill="#FFECD0"/>
<rect x="706.818" y="110.341" width="18.7122" height="6.02595" rx="3.01298" transform="rotate(2.16189 706.818 110.341)" fill="#FFECD0"/>
</g>
<path d="M685.049 172.003L729.371 122.516C729.803 122.034 730.543 121.997 731.019 122.434L731.894 123.234C732.37 123.67 732.4 124.412 731.96 124.886L686.764 173.573C686.329 174.041 685.6 174.071 685.13 173.64C684.659 173.209 684.623 172.479 685.049 172.003Z" fill="#0DBBF9"/>
<g opacity="0.2">
<path d="M685 173.825C684.702 173.554 684.578 173.163 684.635 172.789C684.667 172.572 684.761 172.362 684.918 172.186L729.334 122.594C729.767 122.111 730.509 122.076 730.986 122.511L731.372 122.865C731.13 122.911 730.898 123.032 730.721 123.232L686.305 172.824C686.149 173 686.055 173.21 686.023 173.426C685.989 173.647 686.02 173.876 686.113 174.082C685.736 174.194 685.31 174.11 685 173.825Z" fill="#000072"/>
</g>
<path d="M690.753 181.073L677.439 168.576L685.268 169.225L689.596 173.287L690.753 181.073Z" fill="#0DBBF9"/>
<g opacity="0.6">
<path d="M690.641 181.277L689.481 180.19L688.343 172.529L685 169.393L685.142 169.405L688.403 172.464L689.48 173.473" fill="white"/>
</g>
<path d="M689.594 173.289L685.266 169.227L685.538 168.936C686.499 167.908 688.108 167.855 689.132 168.816L689.749 169.396C690.774 170.357 690.826 171.97 689.866 172.997L689.594 173.289Z" fill="#F4B467"/>
<g opacity="0.6">
<path d="M689.479 173.477L688.402 172.468L688.894 171.94C689.701 171.078 689.658 169.721 688.796 168.913L688.206 168.362C688.387 168.452 688.559 168.569 688.715 168.715L689.935 169.859C690.796 170.668 690.839 172.022 690.032 172.884L689.479 173.477Z" fill="white"/>
</g>
<g opacity="0.2">
<path d="M689.478 173.472L687.48 171.597L687.478 171.597L685.14 169.404L685.695 168.811C686.503 167.946 687.854 167.902 688.715 168.71L689.935 169.854C690.111 170.02 690.253 170.21 690.362 170.414C689.63 170.222 688.818 170.43 688.263 171.022L687.708 171.615L689.576 173.369L689.478 173.472Z" fill="#000072"/>
</g>
<g opacity="0.2">
<path d="M690.641 181.277L677.297 168.754L685.142 169.405L687.479 171.598L679.864 170.968L690.608 181.051L690.641 181.277Z" fill="#000072"/>
</g>
<path d="M677.438 168.582L669.921 171.356L670.407 172.075C674.912 178.741 680.801 184.268 687.733 188.337L688.481 188.776L690.752 181.078L677.438 168.582Z" fill="#F4B467"/>
<g opacity="0.6">
<path opacity="0.29" d="M687.932 188.693C687.921 188.691 687.909 188.689 687.895 188.685L688.832 182.299C688.923 181.683 688.717 181.062 688.278 180.623L676.639 168.999L677.295 168.756L690.639 181.279L688.573 188.284C688.486 188.569 688.207 188.734 687.932 188.693Z" fill="white"/>
</g>
<g opacity="0.2">
<path d="M688.02 188.463C687.971 188.451 687.924 188.43 687.878 188.404C684.377 186.348 681.127 183.914 678.184 181.152C675.241 178.391 672.605 175.299 670.329 171.933C670.119 171.622 670.257 171.196 670.608 171.066L676.522 168.884L672.474 172.073C672.326 172.19 672.289 172.399 672.387 172.559C672.47 172.696 672.632 172.764 672.788 172.727L676.966 171.742L676.531 172.39C676.332 172.685 676.62 173.063 676.957 172.95L679.112 172.222C679.112 172.222 679.026 172.584 679.036 173.255L675.994 176.353C675.854 176.496 675.852 176.724 675.989 176.87L676.819 177.745C676.947 177.881 677.156 177.899 677.307 177.789L679.546 176.15C679.692 176.612 679.642 176.578 679.877 177.107C679.652 177.379 679.359 177.885 679.106 178.356C678.931 178.681 679.287 179.035 679.611 178.857L680.469 178.387C680.528 178.505 680.59 178.622 680.656 178.743L680.22 180.475C680.142 180.784 680.464 181.042 680.748 180.897L681.67 180.426L684.561 178.783C684.509 178.872 683.131 181.193 684.068 183.613C684.224 184.015 684.752 184.107 685.039 183.785L686.696 181.918L686.392 183.938C686.322 184.402 686.806 184.75 687.222 184.535L688.081 184.093C688.081 184.093 687.288 186.611 688.02 188.463Z" fill="#000072"/>
</g>
<g filter="url(#filter14_d_0_1)">
<path d="M724.699 141.051C726.702 140.552 734.969 148.38 734.257 150.92C725.662 158.716 700.905 155.873 700.216 151.747C699.527 147.621 722.696 141.55 724.699 141.051Z" fill="white"/>
<mask id="mask23_0_1" style="mask-type:alpha" maskUnits="userSpaceOnUse" x="700" y="141" width="35" height="15">
<path d="M724.699 141.052C726.702 140.553 734.969 148.381 734.257 150.92C725.661 158.716 700.904 155.874 700.216 151.748C699.527 147.621 722.696 141.551 724.699 141.052Z" fill="#5E76A2"/>
</mask>
<g mask="url(#mask23_0_1)">
<path d="M732.529 144.018C741.839 134.635 738.953 151.741 741.911 157.299C733.99 165.779 693.622 159.808 697.27 151.696C708.91 156.931 723.22 153.401 732.529 144.018Z" fill="#5E76A2"/>
</g>
</g>
<g filter="url(#filter15_d_0_1)">
<path d="M684.631 141.609C683.565 139.841 672.184 139.543 670.894 141.844C671.473 153.433 691.006 168.908 694.407 166.473C697.809 164.039 685.696 143.377 684.631 141.609Z" fill="white"/>
<mask id="mask24_0_1" style="mask-type:alpha" maskUnits="userSpaceOnUse" x="670" y="140" width="26" height="27">
<path d="M684.63 141.61C683.565 139.842 672.184 139.544 670.894 141.844C671.472 153.434 691.005 168.909 694.407 166.474C697.809 164.039 685.696 143.377 684.63 141.61Z" fill="#5E76A2"/>
</mask>
<g mask="url(#mask24_0_1)">
<path d="M676.992 138.178C677.03 124.96 666.99 139.108 660.971 140.954C660.588 152.552 693.382 176.838 696.529 168.517C684.592 164.002 676.955 151.396 676.992 138.178Z" fill="#5E76A2"/>
</g>
</g>
<defs>
<filter id="filter0_d_0_1" x="75.5762" y="121.367" width="48.4975" height="51.4183" filterUnits="userSpaceOnUse" color-interpolation-filters="sRGB">
<feFlood flood-opacity="0" result="BackgroundImageFix"/>
<feColorMatrix in="SourceAlpha" type="matrix" values="0 0 0 0 0 0 0 0 0 0 0 0 0 0 0 0 0 0 127 0" result="hardAlpha"/>
<feOffset dy="1.15375"/>
<feGaussianBlur stdDeviation="2.59594"/>
<feComposite in2="hardAlpha" operator="out"/>
<feColorMatrix type="matrix" values="0 0 0 0 0.266667 0 0 0 0 0.678431 0 0 0 0 0.980392 0 0 0 0.3 0"/>
<feBlend mode="normal" in2="BackgroundImageFix" result="effect1_dropShadow_0_1"/>
<feBlend mode="normal" in="SourceGraphic" in2="effect1_dropShadow_0_1" result="shape"/>
</filter>
<filter id="filter1_d_0_1" x="54.3926" y="70.7002" width="92.5451" height="79.1727" filterUnits="userSpaceOnUse" color-interpolation-filters="sRGB">
<feFlood flood-opacity="0" result="BackgroundImageFix"/>
<feColorMatrix in="SourceAlpha" type="matrix" values="0 0 0 0 0 0 0 0 0 0 0 0 0 0 0 0 0 0 127 0" result="hardAlpha"/>
<feOffset dy="1.15375"/>
<feGaussianBlur stdDeviation="2.59594"/>
<feComposite in2="hardAlpha" operator="out"/>
<feColorMatrix type="matrix" values="0 0 0 0 0.266667 0 0 0 0 0.678431 0 0 0 0 0.980392 0 0 0 0.3 0"/>
<feBlend mode="normal" in2="BackgroundImageFix" result="effect1_dropShadow_0_1"/>
<feBlend mode="normal" in="SourceGraphic" in2="effect1_dropShadow_0_1" result="shape"/>
</filter>
<filter id="filter2_d_0_1" x="107.34" y="129.475" width="47.6848" height="44.6101" filterUnits="userSpaceOnUse" color-interpolation-filters="sRGB">
<feFlood flood-opacity="0" result="BackgroundImageFix"/>
<feColorMatrix in="SourceAlpha" type="matrix" values="0 0 0 0 0 0 0 0 0 0 0 0 0 0 0 0 0 0 127 0" result="hardAlpha"/>
<feOffset dy="1.15375"/>
<feGaussianBlur stdDeviation="2.59594"/>
<feComposite in2="hardAlpha" operator="out"/>
<feColorMatrix type="matrix" values="0 0 0 0 0.266667 0 0 0 0 0.678431 0 0 0 0 0.980392 0 0 0 0.3 0"/>
<feBlend mode="normal" in2="BackgroundImageFix" result="effect1_dropShadow_0_1"/>
<feBlend mode="normal" in="SourceGraphic" in2="effect1_dropShadow_0_1" result="shape"/>
</filter>
<filter id="filter3_d_0_1" x="44.5574" y="129.475" width="47.6848" height="44.6101" filterUnits="userSpaceOnUse" color-interpolation-filters="sRGB">
<feFlood flood-opacity="0" result="BackgroundImageFix"/>
<feColorMatrix in="SourceAlpha" type="matrix" values="0 0 0 0 0 0 0 0 0 0 0 0 0 0 0 0 0 0 127 0" result="hardAlpha"/>
<feOffset dy="1.15375"/>
<feGaussianBlur stdDeviation="2.59594"/>
<feComposite in2="hardAlpha" operator="out"/>
<feColorMatrix type="matrix" values="0 0 0 0 0.266667 0 0 0 0 0.678431 0 0 0 0 0.980392 0 0 0 0.3 0"/>
<feBlend mode="normal" in2="BackgroundImageFix" result="effect1_dropShadow_0_1"/>
<feBlend mode="normal" in="SourceGraphic" in2="effect1_dropShadow_0_1" result="shape"/>
</filter>
<filter id="filter4_d_0_1" x="316.616" y="121.958" width="20.2299" height="39.7489" filterUnits="userSpaceOnUse" color-interpolation-filters="sRGB">
<feFlood flood-opacity="0" result="BackgroundImageFix"/>
<feColorMatrix in="SourceAlpha" type="matrix" values="0 0 0 0 0 0 0 0 0 0 0 0 0 0 0 0 0 0 127 0" result="hardAlpha"/>
<feOffset dy="1.15375"/>
<feGaussianBlur stdDeviation="2.59594"/>
<feComposite in2="hardAlpha" operator="out"/>
<feColorMatrix type="matrix" values="0 0 0 0 0.266667 0 0 0 0 0.678431 0 0 0 0 0.980392 0 0 0 0.3 0"/>
<feBlend mode="normal" in2="BackgroundImageFix" result="effect1_dropShadow_0_1"/>
<feBlend mode="normal" in="SourceGraphic" in2="effect1_dropShadow_0_1" result="shape"/>
</filter>
<filter id="filter5_d_0_1" x="279.309" y="105.649" width="52.1125" height="53.0637" filterUnits="userSpaceOnUse" color-interpolation-filters="sRGB">
<feFlood flood-opacity="0" result="BackgroundImageFix"/>
<feColorMatrix in="SourceAlpha" type="matrix" values="0 0 0 0 0 0 0 0 0 0 0 0 0 0 0 0 0 0 127 0" result="hardAlpha"/>
<feOffset dy="1.15375"/>
<feGaussianBlur stdDeviation="2.59594"/>
<feComposite in2="hardAlpha" operator="out"/>
<feColorMatrix type="matrix" values="0 0 0 0 0.266667 0 0 0 0 0.678431 0 0 0 0 0.980392 0 0 0 0.3 0"/>
<feBlend mode="normal" in2="BackgroundImageFix" result="effect1_dropShadow_0_1"/>
<feBlend mode="normal" in="SourceGraphic" in2="effect1_dropShadow_0_1" result="shape"/>
</filter>
<filter id="filter6_d_0_1" x="262.825" y="111.602" width="34.7121" height="29.3597" filterUnits="userSpaceOnUse" color-interpolation-filters="sRGB">
<feFlood flood-opacity="0" result="BackgroundImageFix"/>
<feColorMatrix in="SourceAlpha" type="matrix" values="0 0 0 0 0 0 0 0 0 0 0 0 0 0 0 0 0 0 127 0" result="hardAlpha"/>
<feOffset dy="1.15375"/>
<feGaussianBlur stdDeviation="2.59594"/>
<feComposite in2="hardAlpha" operator="out"/>
<feColorMatrix type="matrix" values="0 0 0 0 0.266667 0 0 0 0 0.678431 0 0 0 0 0.980392 0 0 0 0.3 0"/>
<feBlend mode="normal" in2="BackgroundImageFix" result="effect1_dropShadow_0_1"/>
<feBlend mode="normal" in="SourceGraphic" in2="effect1_dropShadow_0_1" result="shape"/>
</filter>
<filter id="filter7_d_0_1" x="281.98" y="65.6733" width="93.3103" height="78.6151" filterUnits="userSpaceOnUse" color-interpolation-filters="sRGB">
<feFlood flood-opacity="0" result="BackgroundImageFix"/>
<feColorMatrix in="SourceAlpha" type="matrix" values="0 0 0 0 0 0 0 0 0 0 0 0 0 0 0 0 0 0 127 0" result="hardAlpha"/>
<feOffset dy="1.15375"/>
<feGaussianBlur stdDeviation="2.59594"/>
<feComposite in2="hardAlpha" operator="out"/>
<feColorMatrix type="matrix" values="0 0 0 0 0.266667 0 0 0 0 0.678431 0 0 0 0 0.980392 0 0 0 0.3 0"/>
<feBlend mode="normal" in2="BackgroundImageFix" result="effect1_dropShadow_0_1"/>
<feBlend mode="normal" in="SourceGraphic" in2="effect1_dropShadow_0_1" result="shape"/>
</filter>
<filter id="filter8_d_0_1" x="475.576" y="121.367" width="48.4975" height="51.4183" filterUnits="userSpaceOnUse" color-interpolation-filters="sRGB">
<feFlood flood-opacity="0" result="BackgroundImageFix"/>
<feColorMatrix in="SourceAlpha" type="matrix" values="0 0 0 0 0 0 0 0 0 0 0 0 0 0 0 0 0 0 127 0" result="hardAlpha"/>
<feOffset dy="1.15375"/>
<feGaussianBlur stdDeviation="2.59594"/>
<feComposite in2="hardAlpha" operator="out"/>
<feColorMatrix type="matrix" values="0 0 0 0 0.266667 0 0 0 0 0.678431 0 0 0 0 0.980392 0 0 0 0.3 0"/>
<feBlend mode="normal" in2="BackgroundImageFix" result="effect1_dropShadow_0_1"/>
<feBlend mode="normal" in="SourceGraphic" in2="effect1_dropShadow_0_1" result="shape"/>
</filter>
<filter id="filter9_d_0_1" x="454.393" y="70.7077" width="92.5451" height="79.1727" filterUnits="userSpaceOnUse" color-interpolation-filters="sRGB">
<feFlood flood-opacity="0" result="BackgroundImageFix"/>
<feColorMatrix in="SourceAlpha" type="matrix" values="0 0 0 0 0 0 0 0 0 0 0 0 0 0 0 0 0 0 127 0" result="hardAlpha"/>
<feOffset dy="1.15375"/>
<feGaussianBlur stdDeviation="2.59594"/>
<feComposite in2="hardAlpha" operator="out"/>
<feColorMatrix type="matrix" values="0 0 0 0 0.266667 0 0 0 0 0.678431 0 0 0 0 0.980392 0 0 0 0.3 0"/>
<feBlend mode="normal" in2="BackgroundImageFix" result="effect1_dropShadow_0_1"/>
<feBlend mode="normal" in="SourceGraphic" in2="effect1_dropShadow_0_1" result="shape"/>
</filter>
<filter id="filter10_d_0_1" x="517.943" y="113.075" width="32.3706" height="42.0062" filterUnits="userSpaceOnUse" color-interpolation-filters="sRGB">
<feFlood flood-opacity="0" result="BackgroundImageFix"/>
<feColorMatrix in="SourceAlpha" type="matrix" values="0 0 0 0 0 0 0 0 0 0 0 0 0 0 0 0 0 0 127 0" result="hardAlpha"/>
<feOffset dy="1.15375"/>
<feGaussianBlur stdDeviation="2.59594"/>
<feComposite in2="hardAlpha" operator="out"/>
<feColorMatrix type="matrix" values="0 0 0 0 0.266667 0 0 0 0 0.678431 0 0 0 0 0.980392 0 0 0 0.3 0"/>
<feBlend mode="normal" in2="BackgroundImageFix" result="effect1_dropShadow_0_1"/>
<feBlend mode="normal" in="SourceGraphic" in2="effect1_dropShadow_0_1" result="shape"/>
</filter>
<filter id="filter11_d_0_1" x="449.097" y="113.075" width="32.3706" height="42.0062" filterUnits="userSpaceOnUse" color-interpolation-filters="sRGB">
<feFlood flood-opacity="0" result="BackgroundImageFix"/>
<feColorMatrix in="SourceAlpha" type="matrix" values="0 0 0 0 0 0 0 0 0 0 0 0 0 0 0 0 0 0 127 0" result="hardAlpha"/>
<feOffset dy="1.15375"/>
<feGaussianBlur stdDeviation="2.59594"/>
<feComposite in2="hardAlpha" operator="out"/>
<feColorMatrix type="matrix" values="0 0 0 0 0.266667 0 0 0 0 0.678431 0 0 0 0 0.980392 0 0 0 0.3 0"/>
<feBlend mode="normal" in2="BackgroundImageFix" result="effect1_dropShadow_0_1"/>
<feBlend mode="normal" in="SourceGraphic" in2="effect1_dropShadow_0_1" result="shape"/>
</filter>
<filter id="filter12_d_0_1" x="675.576" y="121.367" width="48.4975" height="51.4183" filterUnits="userSpaceOnUse" color-interpolation-filters="sRGB">
<feFlood flood-opacity="0" result="BackgroundImageFix"/>
<feColorMatrix in="SourceAlpha" type="matrix" values="0 0 0 0 0 0 0 0 0 0 0 0 0 0 0 0 0 0 127 0" result="hardAlpha"/>
<feOffset dy="1.15375"/>
<feGaussianBlur stdDeviation="2.59594"/>
<feComposite in2="hardAlpha" operator="out"/>
<feColorMatrix type="matrix" values="0 0 0 0 0.266667 0 0 0 0 0.678431 0 0 0 0 0.980392 0 0 0 0.3 0"/>
<feBlend mode="normal" in2="BackgroundImageFix" result="effect1_dropShadow_0_1"/>
<feBlend mode="normal" in="SourceGraphic" in2="effect1_dropShadow_0_1" result="shape"/>
</filter>
<filter id="filter13_d_0_1" x="654.392" y="72.5725" width="93.2983" height="80.2675" filterUnits="userSpaceOnUse" color-interpolation-filters="sRGB">
<feFlood flood-opacity="0" result="BackgroundImageFix"/>
<feColorMatrix in="SourceAlpha" type="matrix" values="0 0 0 0 0 0 0 0 0 0 0 0 0 0 0 0 0 0 127 0" result="hardAlpha"/>
<feOffset dy="1.15375"/>
<feGaussianBlur stdDeviation="2.59594"/>
<feComposite in2="hardAlpha" operator="out"/>
<feColorMatrix type="matrix" values="0 0 0 0 0.266667 0 0 0 0 0.678431 0 0 0 0 0.980392 0 0 0 0.3 0"/>
<feBlend mode="normal" in2="BackgroundImageFix" result="effect1_dropShadow_0_1"/>
<feBlend mode="normal" in="SourceGraphic" in2="effect1_dropShadow_0_1" result="shape"/>
</filter>
<filter id="filter14_d_0_1" x="694.49" y="129.337" width="47.1482" height="42.1334" filterUnits="userSpaceOnUse" color-interpolation-filters="sRGB">
<feFlood flood-opacity="0" result="BackgroundImageFix"/>
<feColorMatrix in="SourceAlpha" type="matrix" values="0 0 0 0 0 0 0 0 0 0 0 0 0 0 0 0 0 0 127 0" result="hardAlpha"/>
<feOffset dy="1.15375"/>
<feGaussianBlur stdDeviation="2.59594"/>
<feComposite in2="hardAlpha" operator="out"/>
<feColorMatrix type="matrix" values="0 0 0 0 0.266667 0 0 0 0 0.678431 0 0 0 0 0.980392 0 0 0 0.3 0"/>
<feBlend mode="normal" in2="BackgroundImageFix" result="effect1_dropShadow_0_1"/>
<feBlend mode="normal" in="SourceGraphic" in2="effect1_dropShadow_0_1" result="shape"/>
</filter>
<filter id="filter15_d_0_1" x="660.192" y="132.814" width="46.6894" height="40.878" filterUnits="userSpaceOnUse" color-interpolation-filters="sRGB">
<feFlood flood-opacity="0" result="BackgroundImageFix"/>
<feColorMatrix in="SourceAlpha" type="matrix" values="0 0 0 0 0 0 0 0 0 0 0 0 0 0 0 0 0 0 127 0" result="hardAlpha"/>
<feOffset dy="1.15375"/>
<feGaussianBlur stdDeviation="2.59594"/>
<feComposite in2="hardAlpha" operator="out"/>
<feColorMatrix type="matrix" values="0 0 0 0 0.266667 0 0 0 0 0.678431 0 0 0 0 0.980392 0 0 0 0.3 0"/>
<feBlend mode="normal" in2="BackgroundImageFix" result="effect1_dropShadow_0_1"/>
<feBlend mode="normal" in="SourceGraphic" in2="effect1_dropShadow_0_1" result="shape"/>
</filter>
<radialGradient id="paint0_radial_0_1" cx="0" cy="0" r="1" gradientUnits="userSpaceOnUse" gradientTransform="translate(100.06 119.825) rotate(-85.9717) scale(84.4077 54.2104)">
<stop stop-color="#44ADFA"/>
<stop offset="1" stop-color="#44ADFA" stop-opacity="0"/>
</radialGradient>
<linearGradient id="paint1_linear_0_1" x1="107.711" y1="160.863" x2="67.8596" y2="148.459" gradientUnits="userSpaceOnUse">
<stop stop-color="#438FF9"/>
<stop offset="1" stop-color="#43C2F9"/>
</linearGradient>
<linearGradient id="paint2_linear_0_1" x1="112.746" y1="170.951" x2="59.4188" y2="156.115" gradientUnits="userSpaceOnUse">
<stop stop-color="#438FF9"/>
<stop offset="1" stop-color="#43C2F9"/>
</linearGradient>
<linearGradient id="paint3_linear_0_1" x1="113.132" y1="142.701" x2="28.6736" y2="83.1041" gradientUnits="userSpaceOnUse">
<stop stop-color="#438FF9"/>
<stop offset="1" stop-color="#43C2F9"/>
</linearGradient>
<linearGradient id="paint4_linear_0_1" x1="129.423" y1="172.58" x2="-17.5804" y2="60.2308" gradientUnits="userSpaceOnUse">
<stop stop-color="#438FF9"/>
<stop offset="1" stop-color="#43C2F9"/>
</linearGradient>
<linearGradient id="paint5_linear_0_1" x1="67.6022" y1="98.5826" x2="-73.8944" y2="52.9112" gradientUnits="userSpaceOnUse">
<stop stop-color="#438FF9"/>
<stop offset="1" stop-color="#43C2F9"/>
</linearGradient>
<linearGradient id="paint6_linear_0_1" x1="67.6022" y1="98.5826" x2="-73.8944" y2="52.9112" gradientUnits="userSpaceOnUse">
<stop stop-color="#438FF9"/>
<stop offset="1" stop-color="#43C2F9"/>
</linearGradient>
<linearGradient id="paint7_linear_0_1" x1="67.6022" y1="98.5826" x2="-73.8944" y2="52.9112" gradientUnits="userSpaceOnUse">
<stop stop-color="#438FF9"/>
<stop offset="1" stop-color="#43C2F9"/>
</linearGradient>
<linearGradient id="paint8_linear_0_1" x1="67.6022" y1="98.5826" x2="-73.8944" y2="52.9112" gradientUnits="userSpaceOnUse">
<stop stop-color="#438FF9"/>
<stop offset="1" stop-color="#43C2F9"/>
</linearGradient>
<linearGradient id="paint9_linear_0_1" x1="67.6022" y1="98.5826" x2="-73.8944" y2="52.9112" gradientUnits="userSpaceOnUse">
<stop stop-color="#438FF9"/>
<stop offset="1" stop-color="#43C2F9"/>
</linearGradient>
<linearGradient id="paint10_linear_0_1" x1="67.6022" y1="98.5826" x2="-73.8944" y2="52.9112" gradientUnits="userSpaceOnUse">
<stop stop-color="#438FF9"/>
<stop offset="1" stop-color="#43C2F9"/>
</linearGradient>
<linearGradient id="paint11_linear_0_1" x1="291.859" y1="145.501" x2="337.484" y2="150.078" gradientUnits="userSpaceOnUse">
<stop stop-color="#438FF9"/>
<stop offset="1" stop-color="#43C2F9"/>
</linearGradient>
<linearGradient id="paint12_linear_0_1" x1="291.859" y1="145.501" x2="337.484" y2="150.078" gradientUnits="userSpaceOnUse">
<stop stop-color="#3674C9"/>
<stop offset="1" stop-color="#3295BF"/>
</linearGradient>
<linearGradient id="paint13_linear_0_1" x1="282.569" y1="152.215" x2="342.949" y2="160.329" gradientUnits="userSpaceOnUse">
<stop stop-color="#3674C9"/>
<stop offset="1" stop-color="#3295BF"/>
</linearGradient>
<linearGradient id="paint14_linear_0_1" x1="306.824" y1="132.622" x2="420.658" y2="97.7613" gradientUnits="userSpaceOnUse">
<stop stop-color="#438FF9"/>
<stop offset="1" stop-color="#43C2F9"/>
</linearGradient>
<linearGradient id="paint15_linear_0_1" x1="306.824" y1="132.622" x2="420.658" y2="97.7613" gradientUnits="userSpaceOnUse">
<stop stop-color="#3674C9"/>
<stop offset="1" stop-color="#3295BF"/>
</linearGradient>
<linearGradient id="paint16_linear_0_1" x1="278.143" y1="159.077" x2="479.291" y2="88.944" gradientUnits="userSpaceOnUse">
<stop stop-color="#3674C9"/>
<stop offset="1" stop-color="#3295BF"/>
</linearGradient>
<radialGradient id="paint17_radial_0_1" cx="0" cy="0" r="1" gradientUnits="userSpaceOnUse" gradientTransform="translate(499.682 144.727) rotate(-90) scale(121.049 61.7605)">
<stop offset="0.345" stop-color="#44ADFA"/>
<stop offset="1" stop-color="#44ADFA" stop-opacity="0"/>
</radialGradient>
<linearGradient id="paint18_linear_0_1" x1="499.682" y1="157.211" x2="499.682" y2="196.552" gradientUnits="userSpaceOnUse">
<stop stop-color="#44ADFA"/>
<stop offset="0.959631" stop-color="#44ADFA" stop-opacity="0"/>
</linearGradient>
<linearGradient id="paint19_linear_0_1" x1="507.711" y1="160.863" x2="467.86" y2="148.459" gradientUnits="userSpaceOnUse">
<stop stop-color="#438FF9"/>
<stop offset="1" stop-color="#43C2F9"/>
</linearGradient>
<linearGradient id="paint20_linear_0_1" x1="512.746" y1="170.951" x2="459.419" y2="156.115" gradientUnits="userSpaceOnUse">
<stop stop-color="#438FF9"/>
<stop offset="1" stop-color="#43C2F9"/>
</linearGradient>
<linearGradient id="paint21_linear_0_1" x1="513.132" y1="142.708" x2="428.674" y2="83.1117" gradientUnits="userSpaceOnUse">
<stop stop-color="#438FF9"/>
<stop offset="1" stop-color="#43C2F9"/>
</linearGradient>
<linearGradient id="paint22_linear_0_1" x1="529.423" y1="172.587" x2="382.42" y2="60.2384" gradientUnits="userSpaceOnUse">
<stop stop-color="#438FF9"/>
<stop offset="1" stop-color="#43C2F9"/>
</linearGradient>
<radialGradient id="paint23_radial_0_1" cx="0" cy="0" r="1" gradientUnits="userSpaceOnUse" gradientTransform="translate(700.06 119.825) rotate(-85.9717) scale(84.4077 54.2104)">
<stop stop-color="#FE9D12"/>
<stop offset="1" stop-color="#FE9D12" stop-opacity="0"/>
</radialGradient>
<radialGradient id="paint24_radial_0_1" cx="0" cy="0" r="1" gradientUnits="userSpaceOnUse" gradientTransform="translate(700.06 119.825) rotate(-85.9717) scale(84.4077 54.2104)">
<stop stop-color="#FDA11C"/>
<stop offset="1" stop-color="#FDA01A" stop-opacity="0"/>
</radialGradient>
<linearGradient id="paint25_linear_0_1" x1="707.711" y1="160.863" x2="667.86" y2="148.459" gradientUnits="userSpaceOnUse">
<stop stop-color="#FF9500"/>
<stop offset="1" stop-color="#F9B043"/>
</linearGradient>
<linearGradient id="paint26_linear_0_1" x1="712.911" y1="145.336" x2="629.523" y2="84.2504" gradientUnits="userSpaceOnUse">
<stop stop-color="#FF9500"/>
<stop offset="1" stop-color="#F9B043"/>
</linearGradient>
</defs>
</svg>
