<svg width="116" height="76" viewBox="0 0 116 76" fill="none" xmlns="http://www.w3.org/2000/svg">
<g filter="url(#filter0_b_0_1)">
<path d="M116 38.9766C116 33.5625 42 6 42 6V69C42 69 116 44.3906 116 38.9766Z" fill="url(#paint0_linear_0_1)"/>
</g>
<path d="M23.8233 11.1878C24.7286 10.5903 25.6667 10.0388 26.6335 9.53487C25.8738 8.95725 24.7726 8.55743 24.1165 8.59191C23.8577 8.60553 23.6154 8.71756 23.3826 8.83156C21.4386 9.7841 19.6289 11.011 18.0245 12.4646C17.8207 12.6495 17.6141 12.846 17.5088 13.1002C17.3863 13.3951 17.4155 13.728 17.4467 14.0456C17.5263 14.8563 17.6059 15.667 17.6855 16.4777C19.4954 14.4656 21.5563 12.6839 23.8233 11.1878Z" fill="#DEBCA0"/>
<path d="M58.8314 7.94994C58.685 7.73614 58.4632 7.58777 58.2447 7.44839C56.419 6.28474 54.4292 5.37895 52.3527 4.76633C52.0886 4.68843 51.8134 4.61456 51.5415 4.65688C51.226 4.70596 50.9569 4.90425 50.702 5.09631C50.0304 5.60229 49.3589 6.10819 48.6873 6.61417C48.6157 6.66817 48.5431 6.72517 48.4722 6.78447C52.4883 7.71666 56.2112 9.41226 59.4807 11.7091C59.6579 10.4439 59.2788 8.60365 58.8314 7.94994Z" fill="#DEBCA0"/>
<path d="M56.1611 65.6917C56.6255 66.6709 58.6019 67.4168 59.5582 67.2988C59.8155 67.2671 60.049 67.1382 60.2732 67.0081C62.1457 65.9214 63.8647 64.5703 65.3629 63.0076C65.5534 62.8089 65.7455 62.5983 65.8329 62.3374C65.9343 62.0347 65.8818 61.7047 65.8284 61.39C65.6876 60.5609 65.5468 59.732 65.406 58.9031C65.3775 58.7352 65.3427 58.5596 65.2891 58.3945C62.7337 61.355 59.6408 63.8381 56.1611 65.6917Z" fill="#7C8778"/>
<path d="M26.7621 68.5536C26.9264 68.754 27.1602 68.8827 27.3899 69.0025C29.3093 70.0043 31.3698 70.735 33.4913 71.166C33.7611 71.2208 34.0418 71.2706 34.3091 71.205C34.619 71.1288 34.8699 70.9081 35.1074 70.6946C35.7002 70.1619 36.2929 69.6291 36.8857 69.0964C33.0114 68.5605 29.3623 67.3222 26.0665 65.5176C25.9095 66.5387 26.2776 67.9626 26.7621 68.5536Z" fill="#7C8778"/>
<path d="M76.0119 32.025C75.8353 31.7592 75.5427 31.5978 75.2615 31.4466L73.0397 30.2521C72.7294 30.0853 72.3775 29.9181 72.0396 29.949C72.6596 32.4237 72.9892 35.0135 72.9892 37.6801C72.9892 38.9213 72.9186 40.1441 72.7792 41.3484C72.7648 41.473 72.7476 41.5967 72.7319 41.7208C73.7918 41.9424 75.5801 40.8473 76.0721 40.024C76.205 39.8016 76.247 39.538 76.2819 39.2812C76.5749 37.1362 76.5647 34.9499 76.2521 32.8077C76.2123 32.5354 76.1641 32.2543 76.0119 32.025Z" fill="#7C8778"/>
<path d="M13.5973 53.1875C12.7526 53.8406 12.1282 55.5134 12.2175 56.3748C12.2441 56.6326 12.3683 56.8687 12.4941 57.0953C13.544 58.9886 14.8613 60.7336 16.3945 62.2621C16.5895 62.4564 16.7963 62.6526 17.0555 62.7451C17.3562 62.8523 17.6871 62.8063 18.0028 62.7589C18.8344 62.6343 19.6659 62.5098 20.4975 62.3853C20.7246 62.3513 20.9657 62.3062 21.1766 62.2173C18.1226 59.7138 15.5435 56.6528 13.5973 53.1875Z" fill="#DEBCA0"/>
<path d="M9.68144 25.0571C9.48201 25.2226 9.35474 25.4571 9.2361 25.6875C8.24536 27.6125 7.52657 29.6772 7.10768 31.8012C7.05444 32.0712 7.00622 32.3522 7.07336 32.6191C7.15126 32.9287 7.37346 33.1783 7.58809 33.4145C8.15376 34.0367 8.71943 34.6589 9.28491 35.2809C9.38858 35.395 9.49982 35.5118 9.61937 35.6147C9.87727 31.6006 10.884 27.7909 12.498 24.3206C11.5004 24.2454 10.2294 24.6027 9.68144 25.0571Z" fill="#DEBCA0"/>
<path d="M73.1557 59.041C72.8041 59.041 72.519 59.3261 72.519 59.6777C72.519 60.0292 72.8041 60.3142 73.1557 60.3142C73.5073 60.3142 73.7923 60.0292 73.7923 59.6777C73.7923 59.3261 73.5073 59.041 73.1557 59.041Z" fill="#FAB50A"/>
<path d="M31.7851 1.61119C32.1367 1.61119 32.4217 1.32614 32.4217 0.974541C32.4217 0.622944 32.1367 0.337891 31.7851 0.337891C31.4335 0.337891 31.1484 0.622944 31.1484 0.974541C31.1484 1.32614 31.4335 1.61119 31.7851 1.61119Z" fill="#FAB50A"/>
<path d="M1.44602 49.8477C1.09443 49.8477 0.80957 50.1327 0.80957 50.4843C0.80957 50.8359 1.09443 51.121 1.44602 51.121C1.79762 51.121 2.08267 50.8359 2.08267 50.4843C2.08267 50.1327 1.79758 49.8477 1.44602 49.8477Z" fill="#FAB50A"/>
<path d="M16.1557 71.3008C15.8041 71.3008 15.519 71.5858 15.519 71.9374C15.519 72.289 15.8041 72.574 16.1557 72.574C16.5073 72.574 16.7923 72.289 16.7923 71.9374C16.7924 71.5858 16.5073 71.3008 16.1557 71.3008Z" fill="#FAB50A"/>
<path d="M76.5273 17.9766C76.1757 17.9766 75.8906 18.2615 75.8906 18.6131C75.8906 18.9647 76.1757 19.2497 76.5273 19.2497C76.8789 19.2497 77.1637 18.9647 77.1637 18.6131C77.1637 18.2615 76.8789 17.9766 76.5273 17.9766Z" fill="#FAB50A"/>
<path d="M7.73675 11.2538C8.08834 11.2538 8.3734 10.9687 8.3734 10.6171C8.3734 10.2655 8.08834 9.98047 7.73675 9.98047C7.38519 9.98047 7.1001 10.2655 7.1001 10.6171C7.1001 10.9687 7.38515 11.2538 7.73675 11.2538Z" fill="#FAB50A"/>
<path d="M51.069 75.2469C51.2023 74.9216 51.0465 74.5498 50.7211 74.4165C50.3958 74.2832 50.024 74.439 49.8907 74.7644C49.7574 75.0897 49.9132 75.4615 50.2386 75.5948C50.5639 75.7281 50.9358 75.5723 51.069 75.2469Z" fill="#FAB50A"/>
<path d="M60.7453 35.6787C63.6427 29.4946 65.1428 22.5043 64.2035 15.7685C62.7684 14.2666 61.1861 12.9066 59.4814 11.7091C56.2119 9.41224 52.4891 7.7166 48.4729 6.78441C47.3747 6.52952 46.2549 6.33088 45.1162 6.19336C45.5299 8.4274 45.4701 10.7902 45.1314 13.0456C43.7708 22.0952 38.2699 30.2637 30.9197 35.7155C28.2979 37.6584 25.4142 39.2612 22.3635 40.4211C18.5282 41.8797 14.1199 42.7471 9.91064 42.459C10.4924 46.3054 11.7652 49.925 13.5977 53.188C15.5439 56.6533 18.123 59.7143 21.177 62.2178C22.3601 63.1876 23.613 64.0755 24.9299 64.8684C30.2761 63.2136 35.4261 60.9626 40.1976 58.0391C48.9513 52.6746 56.3875 44.9766 60.7453 35.6787Z" fill="#F2D4B9"/>
<path d="M72.9889 37.6809C72.9889 35.0143 72.6593 32.4245 72.0393 29.9499C70.6834 24.5384 67.9375 19.6777 64.2028 15.7695C65.142 22.5054 63.6419 29.4956 60.7445 35.6798C56.3868 44.9777 48.9506 52.6757 40.1969 58.0402C35.4254 60.9638 30.2754 63.2146 24.9292 64.8695C25.3025 65.0944 25.6826 65.3092 26.0657 65.519C29.3615 67.3236 33.0107 68.5619 36.8849 69.0978C38.3185 69.2961 39.7827 69.3989 41.2709 69.3989C46.6526 69.3989 51.7208 68.0574 56.1609 65.692C59.6405 63.8383 62.7334 61.3552 65.289 58.3947C69.2567 53.7982 71.9264 48.0511 72.7315 41.7216C72.7473 41.5975 72.7645 41.4738 72.7788 41.3492C72.9183 40.1449 72.9889 38.9221 72.9889 37.6809Z" fill="#A7B0A5"/>
<path d="M22.3635 40.4202C25.4142 39.2602 28.2979 37.6574 30.9197 35.7145C38.2699 30.2627 43.7708 22.0943 45.1315 13.0446C45.4701 10.7892 45.5299 8.42643 45.1162 6.19239C43.8566 6.03916 42.5726 5.96094 41.2717 5.96094C35.9911 5.96094 31.0133 7.25205 26.6339 9.53466C25.6671 10.0386 24.729 10.5901 23.8237 11.1875C21.5567 12.6837 19.4957 14.4654 17.6858 16.4774C15.5909 18.8064 13.8355 21.4459 12.4986 24.3203C10.8846 27.7906 9.8778 31.6004 9.6199 35.6144C9.576 36.2969 9.55371 36.9853 9.55371 37.6789C9.55371 39.3031 9.67639 40.8997 9.91069 42.458C14.12 42.7461 18.5283 41.8788 22.3635 40.4202Z" fill="#F9E1CD"/>
<path d="M25.5134 20.3561C25.7417 21.7566 26.4389 22.843 27.3859 23.4971C30.2098 22.7173 32.614 20.4112 33.8644 17.8171C34.6351 16.2219 35.0611 14.3588 34.9843 12.5568C34.966 12.1139 34.917 11.6742 34.8358 11.2421C34.799 11.0459 34.7593 10.8222 34.7286 10.5893C34.4895 10.5266 34.2322 10.4883 33.9533 10.4759C29.3089 10.2753 24.7888 15.8988 25.5134 20.3561Z" fill="#A7B0A5"/>
<path d="M17.2145 25.4602C18.0725 24.9209 18.831 24.2314 19.3842 23.3871C19.9909 22.4601 20.3265 21.3308 20.2484 20.2215C20.2422 20.1387 20.2254 20.0269 20.2009 19.9011C20.0814 19.8553 19.9481 19.8261 19.7994 19.8169C19.2953 19.7848 18.828 20.0774 18.4464 20.4084C17.4229 21.3002 15.5076 24.4474 17.2145 25.4602Z" fill="#A7B0A5"/>
<path d="M16.1545 37.6347C18.2843 37.0433 20.2133 35.7178 21.4391 33.8792C22.5776 32.1738 23.071 30.05 22.8152 28.0167C22.7861 27.7823 22.7093 27.5248 22.6253 27.2583C21.6966 26.9548 20.6577 27.2981 19.8272 27.8221C17.3159 29.4049 15.5415 33.0348 15.6181 35.9937C15.6349 36.6464 15.8295 37.2042 16.1545 37.6347Z" fill="#A7B0A5"/>
<path d="M34.9842 12.5573C35.0609 14.3592 34.6349 16.2224 33.8642 17.8176C32.6139 20.4117 30.2097 22.7177 27.3857 23.4976C28.6928 24.4017 30.4764 24.4829 32.1466 23.4272C34.0725 22.2105 35.6523 20.1266 36.584 18.0719C36.9763 17.2047 37.2306 16.06 37.2443 14.9215C37.2673 12.9863 36.5946 11.071 34.7284 10.5898C34.7591 10.8227 34.7988 11.0465 34.8357 11.2426C34.9169 11.6747 34.9659 12.1144 34.9842 12.5573Z" fill="#939E90"/>
<path d="M19.3846 23.3863C18.8314 24.2307 18.0729 24.9202 17.2148 25.4595C17.3651 25.5484 17.5429 25.6204 17.7527 25.6741C18.8193 25.9452 19.766 25.0014 20.2596 24.1724C20.5599 23.6683 20.7942 23.1243 20.9537 22.5589C21.2003 21.6931 21.1728 20.2666 20.2013 19.9004C20.2258 20.0262 20.2426 20.1379 20.2488 20.2208C20.3269 21.3301 19.9913 22.4593 19.3846 23.3863Z" fill="#939E90"/>
<path d="M21.4389 33.8787C20.2131 35.7173 18.2841 37.0428 16.1543 37.6342C16.7366 38.4066 17.7356 38.7727 18.8785 38.549C19.9389 38.3422 21.0206 37.7354 21.7884 36.9846C23.2455 35.5611 24.1066 33.4175 24.3855 31.4653C24.502 30.6625 24.5203 29.8289 24.2736 29.0566C24.0254 28.2844 23.4769 27.5781 22.7199 27.2915C22.6877 27.2792 22.6571 27.2685 22.625 27.2578C22.7091 27.5243 22.7859 27.7818 22.815 28.0163C23.0708 30.0495 22.5774 32.1733 21.4389 33.8787Z" fill="#939E90"/>
<path d="M50.8099 36.769C52.5091 34.5364 53.2354 31.5961 52.857 28.8242C52.7742 28.2159 52.5812 27.6658 52.3636 27.1311C50.9906 25.9864 49.1472 25.5237 47.1599 26.3558C43.6249 27.8359 41.1902 31.4689 40.2771 35.0897C39.776 37.0769 39.8664 39.5393 40.8578 41.3781C44.6608 41.4348 48.5068 39.7891 50.8099 36.769Z" fill="#A7B0A5"/>
<path d="M50.8101 36.7708C48.5069 39.7908 44.6609 41.4366 40.8579 41.3798C41.5582 42.6761 42.7057 43.6613 44.4112 43.9524C48.2878 44.6113 52.2074 40.678 53.6584 37.4633C54.3082 36.0229 54.7526 34.1934 54.757 32.4068C54.7616 30.3674 53.8316 28.3601 52.3638 27.1328C52.5813 27.6675 52.7744 28.2176 52.8571 28.826C53.2355 31.5978 52.5092 34.5382 50.8101 36.7708Z" fill="#939E90"/>
<path d="M47.3748 23.602C48.4925 23.3795 49.2429 21.6066 49.4165 20.6278C49.4921 20.2005 49.4861 19.7588 49.3985 19.3338C49.2778 18.7475 48.9253 18.1328 48.339 18.0119C48.1206 17.9669 47.8925 17.9966 47.6784 18.059C47.0458 18.2431 46.5178 18.7076 46.1712 19.268C45.8248 19.8282 45.6476 20.4791 45.5633 21.1325C45.424 22.2144 45.9443 23.8867 47.3748 23.602Z" fill="#DEBCA0"/>
<path d="M29.4749 26.1459C29.0867 26.0981 28.7094 26.2947 28.3986 26.5321C27.4776 27.2353 26.9087 28.3328 26.689 29.4705C26.6041 29.9107 26.5731 30.3907 26.7872 30.7847C27.2522 31.6409 28.5873 31.5095 29.2479 30.9728C30.0838 30.2938 30.5441 28.9261 30.5586 27.8924C30.5638 27.5164 30.5164 27.1304 30.3416 26.7975C30.1671 26.4646 29.8479 26.1917 29.4749 26.1459Z" fill="#DEBCA0"/>
<path d="M13.4762 27.2763C13.3109 27.3492 13.1834 27.487 13.0744 27.6312C12.7466 28.0659 11.9476 29.9078 12.9122 30.1304C13.8441 30.3454 14.1695 28.3914 14.152 27.8228C14.1465 27.6444 14.1184 27.4492 13.9859 27.3297C13.8517 27.2086 13.6415 27.2033 13.4762 27.2763Z" fill="#DEBCA0"/>
<path d="M28.8644 49.7556C30.1805 48.0625 30.9359 45.9158 30.9254 43.7676C30.9223 43.3339 30.89 42.9018 30.8226 42.4743C29.4941 41.6715 27.6692 41.8768 26.3392 42.7241C23.5551 44.4969 20.676 50.3685 23.2945 53.289C23.3651 53.3672 23.434 53.4407 23.5045 53.5112C25.6005 52.7712 27.5037 51.5039 28.8644 49.7556Z" fill="#A7B0A5"/>
<path d="M31.1523 42.7013C31.0466 42.617 30.9363 42.542 30.8229 42.4746C30.8904 42.9021 30.9226 43.3342 30.9257 43.7679C30.9363 45.9161 30.1809 48.0627 28.8647 49.7559C27.5041 51.5042 25.6009 52.7714 23.5049 53.5115C24.7949 54.7955 26.2017 54.8553 27.5041 54.27C29.5679 53.3445 31.3731 50.8009 32.0366 48.9546C32.4181 47.8942 32.6831 46.7711 32.5957 45.6495C32.51 44.5263 32.035 43.4 31.1523 42.7013Z" fill="#939E90"/>
<path d="M59.46 27.7327C59.2934 27.694 59.1184 27.6868 58.951 27.7218C58.5479 27.8061 58.232 28.1227 58.0053 28.4665C57.7211 28.8968 57.5395 29.3862 57.3908 29.88C57.2448 30.3649 57.1271 30.873 57.1979 31.3745C57.3456 32.4237 58.5644 33.0689 59.4625 32.4128C60.3528 31.7623 60.9167 30.0489 60.6615 29.017C60.5136 28.4181 60.061 27.8721 59.46 27.7327Z" fill="#DEBCA0"/>
<path d="M41.6765 14.1108C42.853 13.3696 43.1531 11.1854 42.399 10.0823C42.1706 9.74845 41.7982 9.49657 41.3939 9.48664C40.9332 9.47528 40.5077 9.77834 40.2612 10.1678C40.0149 10.5572 39.9201 11.0223 39.862 11.4795C39.7307 12.5113 39.9777 15.1809 41.6765 14.1108Z" fill="#DEBCA0"/>
<path d="M13.4176 38.2378C13.4412 37.7821 13.434 37.302 13.2124 36.903C12.9908 36.5042 12.4888 36.2264 12.067 36.4008C11.8142 36.5054 11.6431 36.743 11.5094 36.982C11.0732 37.762 10.3932 40.2265 11.6244 40.6761C12.9141 41.1471 13.3764 39.0391 13.4176 38.2378Z" fill="#DEBCA0"/>
<path d="M65.4578 46.8366C65.7275 45.7073 65.8669 44.529 65.7551 43.3691C65.6984 42.7699 65.4839 42.1954 65.3184 41.6161C65.2633 41.5916 65.2081 41.5702 65.1514 41.5502C64.1125 41.1841 62.9433 41.4768 61.9705 41.9946C59.4131 43.3537 57.887 46.0812 56.888 48.7994C56.1555 50.7898 55.6882 53.1035 55.9686 55.2241C56.0452 55.7988 56.2153 56.3489 56.4788 56.8254C58.3038 56.3427 60.0076 55.3744 61.3912 54.0812C63.4415 52.1612 64.8052 49.5687 65.4578 46.8366Z" fill="#939E90"/>
<path d="M65.3187 41.6172C65.4842 42.1964 65.6987 42.771 65.7553 43.3701C65.8672 44.5301 65.7278 45.7084 65.4581 46.8377C64.8055 49.5698 63.4417 52.1623 61.3914 54.0823C60.0078 55.3755 58.304 56.3439 56.479 56.8265C57.0001 57.7704 57.8842 58.4308 59.1191 58.4369C60.1949 58.4431 61.226 57.9574 62.0657 57.2846C65.1885 54.784 67.3137 50.5012 67.5083 46.5266C67.5557 45.5429 67.499 44.5331 67.1392 43.6153C66.8005 42.7541 66.166 41.9789 65.3187 41.6172Z" fill="#7C8778"/>
<path d="M43.0657 52.8883C43.9857 51.6592 44.6275 50.2074 44.7207 48.6619C44.7556 48.0852 44.7114 47.4878 44.4601 46.9675C44.0316 46.0806 43.0441 45.5551 42.0619 45.4799C41.0796 45.4047 40.1051 45.7194 39.221 46.1537C37.1352 47.1781 35.4023 48.9052 34.3709 50.9876C33.2746 53.2006 33.6314 56.6795 36.7037 56.9897C39.0305 57.2246 41.8021 54.5763 43.0657 52.8883Z" fill="#DEBCA0"/>
<path d="M16.6728 50.0394C17.9679 49.157 18.8317 47.3561 19.0506 45.8525C19.1545 45.1377 19.0944 44.3067 18.538 43.846C18.1466 43.522 17.5823 43.4632 17.0934 43.601C16.6045 43.7388 16.1816 44.0501 15.8147 44.4015C14.6436 45.5232 13.9503 47.1282 13.9366 48.7497C13.9235 50.2896 15.451 50.8718 16.6728 50.0394Z" fill="#DEBCA0"/>
<path d="M43.864 65.9564C44.653 65.8002 45.4193 65.5427 46.1654 65.2409C47.3346 64.7689 48.4684 64.1789 49.4291 63.3608C50.0835 62.803 50.6304 62.1457 51.0441 61.398C50.557 60.7161 49.6146 60.3698 48.7504 60.2135C46.5929 59.8243 44.3236 60.0985 42.2918 60.9153C40.5788 61.6032 37.9371 63.0727 37.4224 65.0447C39.4249 65.9963 41.6958 66.3824 43.864 65.9564Z" fill="#939E90"/>
<path d="M51.0438 61.3984C50.6301 62.1462 50.0832 62.8035 49.4288 63.3613C48.4681 64.1795 47.3343 64.7694 46.1651 65.2413C45.419 65.5432 44.6527 65.8006 43.8637 65.9569C41.6955 66.3829 39.4246 65.9968 37.4221 65.0452C37.4035 65.1172 37.3868 65.1893 37.3744 65.2628C36.9607 67.6133 39.7817 67.984 41.4687 67.9872C43.1526 67.9903 44.8382 67.6623 46.3995 67.0326C47.7049 66.5055 48.9246 65.7654 49.9788 64.8337C50.8262 64.0829 51.6291 62.9935 51.2997 61.9117C51.2415 61.7217 51.1542 61.5517 51.0438 61.3984Z" fill="#7C8778"/>
<path d="M69.1793 29.3424C67.5118 27.9323 66.5984 30.3476 66.1988 31.6299C65.6628 33.3494 65.7351 35.3607 66.5199 36.9978C67.196 38.4086 68.5825 39.6686 69.8142 38.0148C71.2265 36.1185 70.9594 32.478 70.0086 30.4597C69.8248 30.0699 69.539 29.6466 69.1793 29.3424Z" fill="#7C8778"/>
<path d="M51.5727 10.028C50.7667 10.4294 50.4192 11.4402 50.522 12.3347C50.6248 13.2292 51.0834 14.0377 51.5326 14.8182C52.5393 16.5679 53.5463 18.3178 54.5532 20.0675C55.067 20.9607 55.5941 21.8702 56.3632 22.5559C57.1323 23.2415 58.1995 23.677 59.2018 23.4382C60.7513 23.0692 61.5372 21.3091 61.4263 19.8402C61.2843 17.959 60.3329 16.2289 59.2473 14.7286C57.8365 12.7789 56.0531 11.0022 53.8082 10.1352C53.0911 9.85821 52.2607 9.68531 51.5727 10.028Z" fill="#DEBCA0"/>
<path d="M35.1305 41.2189C36.5053 40.7468 36.6679 38.7902 36.0837 37.6894C35.8652 37.2774 35.5041 36.8891 35.0395 36.8475C34.5913 36.8072 34.1816 37.0984 33.8669 37.4201C33.3974 37.8999 33.0252 38.5042 32.9475 39.1711C32.8121 40.3304 33.8937 41.6435 35.1305 41.2189Z" fill="#DEBCA0"/>
<path d="M35.7394 23.2899C35.393 23.7607 35.0796 24.2683 34.9275 24.8327C34.56 26.1963 35.7336 27.8512 37.152 26.8656C38.2432 26.1075 39.0222 23.8509 38.4881 22.6296C38.3406 22.2921 38.06 21.9754 37.6935 21.9375C37.5429 21.9219 37.3911 21.9549 37.2482 22.0043C36.6138 22.2236 36.1371 22.7492 35.7394 23.2899Z" fill="#A7B0A5"/>
<path d="M27.6051 59.7518C27.3697 59.7013 27.1253 59.7267 26.8856 59.7514C26.1237 59.8299 25.3552 59.9 24.5934 59.8219C24.0399 59.7652 23.4377 59.6401 22.9589 59.9237C22.8399 59.9942 22.7324 60.0908 22.6711 60.2148C22.1874 61.1915 24.0163 62.0518 24.7562 62.1405C25.9058 62.2784 27.1905 62.0502 27.9332 61.0864C28.1365 60.8229 28.2956 60.4703 28.165 60.1642C28.0704 59.9426 27.8408 59.8023 27.6051 59.7518Z" fill="#DEBCA0"/>
<path d="M62.8086 40.1258C63.7359 39.9304 64.0913 38.4843 64.2364 37.713C64.2967 37.3921 64.3413 37.0591 64.2661 36.7413C64.191 36.4236 63.9727 36.1214 63.6587 36.0319C63.2541 35.9166 62.8385 36.1756 62.5399 36.472C62.0129 36.9949 61.6466 37.6779 61.5027 38.4062C61.3409 39.2257 61.7737 40.3439 62.8086 40.1258Z" fill="#939E90"/>
<path d="M57.6065 61.6355C57.6987 61.3564 57.7579 61.0366 57.6156 60.7793C57.3957 60.3816 56.8345 60.3518 56.3905 60.4491C55.1192 60.7284 54.0116 61.6667 53.5272 62.875C53.4455 63.0789 53.3797 63.2962 53.3974 63.5152C53.4892 64.6439 54.9552 64.3814 55.6134 64.0065C56.5375 63.4803 57.27 62.6527 57.6065 61.6355Z" fill="#939E90"/>
<path d="M48.2634 57.654C49.0038 57.175 49.5955 56.4407 49.9092 55.6173C50.0799 55.1693 50.1608 54.6243 49.8718 54.2418C49.6578 53.9585 49.2792 53.8345 48.9247 53.8559C48.5702 53.8774 48.2354 54.0255 47.9266 54.201C46.9978 54.7292 45.0358 56.4238 45.4834 57.6991C45.8601 58.7724 47.6464 58.0533 48.2634 57.654Z" fill="#939E90"/>
<path d="M67.5414 26.6835C68.0551 27.9029 69.5041 28.1659 69.5277 26.5983C69.5479 25.2636 69.0565 23.7641 68.1369 22.786C67.8418 22.4722 67.4006 22.1882 67.0042 22.357C66.6426 22.5111 66.5182 22.9657 66.5284 23.3588C66.5398 23.8035 66.6628 24.2374 66.7971 24.6615C67.0141 25.3465 67.2625 26.0214 67.5414 26.6835Z" fill="#939E90"/>
<defs>
<filter id="filter0_b_0_1" x="40" y="4" width="78" height="67" filterUnits="userSpaceOnUse" color-interpolation-filters="sRGB">
<feFlood flood-opacity="0" result="BackgroundImageFix"/>
<feGaussianBlur in="BackgroundImageFix" stdDeviation="1"/>
<feComposite in2="SourceAlpha" operator="in" result="effect1_backgroundBlur_0_1"/>
<feBlend mode="normal" in="SourceGraphic" in2="effect1_backgroundBlur_0_1" result="shape"/>
</filter>
<linearGradient id="paint0_linear_0_1" x1="116" y1="37.5" x2="42" y2="37.5" gradientUnits="userSpaceOnUse">
<stop stop-color="white" stop-opacity="0"/>
<stop offset="1" stop-color="#F2D4B9"/>
</linearGradient>
</defs>
</svg>
