<svg width="82" height="37" viewBox="0 0 82 37" fill="none" xmlns="http://www.w3.org/2000/svg">
<path d="M61.093 31.0721C60.7115 32.6193 58.7192 33.9758 55.8155 34.6116C54.0987 35.0143 46.2566 35.3322 46.4473 34.9931C46.5109 34.8872 47.5071 34.7812 48.6516 34.7388C54.459 34.6116 58.9735 33.4247 60.1817 31.7079C60.4148 31.39 60.6691 30.7753 60.7327 30.3302C60.8599 29.6308 60.8811 29.6096 61.0506 30.0335C61.1354 30.2878 61.1566 30.7753 61.093 31.0721Z" fill="white"/>
<path fill-rule="evenodd" clip-rule="evenodd" d="M50.8347 0.106224C47.4435 0.424149 45.5359 0.954023 44.6246 1.82302C44.0523 2.37409 44.0311 2.43767 44.1795 3.94251C44.3278 5.65931 44.1583 6.04081 42.8866 6.69786C41.8692 7.20654 38.8383 7.27012 35.4683 6.82503C31.2293 6.25276 23.7263 6.25276 22.603 6.80383C21.3101 7.46088 21.3313 8.03314 22.7514 9.81352C23.5992 10.8733 23.7687 11.3184 23.4932 11.827C23.0057 12.7384 19.6357 13.2471 16.4988 12.8868C13.8919 12.5689 9.14419 12.5689 7.38501 12.8656C2.89168 13.671 0.2847 15.3666 0.0303606 17.6557C-0.245174 19.9447 1.36564 21.8311 4.41772 22.8272C6.96111 23.6326 8.10564 23.7386 16.7108 23.9082C23.9383 24.0353 25.4855 24.1201 26.4605 24.438C27.0963 24.6288 27.711 24.8831 27.817 24.9679C28.0713 25.2223 27.3507 25.519 25.5703 25.9217C23.3024 26.4092 22.6454 26.7483 22.6454 27.4053C22.6454 27.7021 22.7937 28.2531 22.9845 28.6346C24.0231 30.6906 25.0828 30.9873 30.5935 30.7965C32.8402 30.7117 35.0232 30.6906 35.4471 30.7753L36.2102 30.9237L36.189 32.1742C36.1254 34.548 37.6514 36.0317 40.7671 36.6039C42.823 36.9855 49.7749 37.1338 52.8906 36.8583C57.5959 36.4344 60.4784 35.4806 61.9408 33.8698C62.937 32.7465 62.9794 31.6443 62.0892 30.2243C61.0718 28.6134 59.7578 28.1472 54.8617 27.6173C49.8173 27.0662 46.9772 26.4304 46.3625 25.6885C46.0234 25.2646 46.5533 24.6924 47.9522 24.0141C49.9657 23.0392 53.3781 22.9756 68.4477 23.7174C76.417 24.0989 79.1935 23.675 80.9527 21.8734C81.6522 21.1528 81.6733 21.068 81.6733 19.4784C81.6733 17.9312 81.631 17.7616 80.9103 16.6807C80.3804 15.8753 79.8294 15.3454 79.024 14.9215C76.8833 13.7558 76.2898 13.671 69.3803 13.6498C62.5131 13.6074 60.6691 13.3955 61.5381 12.7384C61.962 12.4205 62.9158 12.4417 67.1548 12.802C70.0797 13.0563 70.7367 11.8906 68.8292 9.81352L67.9814 8.88094L68.7656 8.73257C69.2319 8.64779 70.5672 8.73257 71.9872 8.94452C74.8062 9.36842 75.3996 9.24125 75.9507 8.07553C76.3958 7.14295 76.2474 6.21037 75.442 5.08704C74.6366 3.9849 73.916 3.49742 71.9025 2.69201C68.4265 1.29314 64.8869 0.530125 60.1605 0.169811C57.5111 -0.0209439 52.5515 -0.0633353 50.8347 0.106224ZM74.8274 6.46471C74.9122 6.31635 74.9969 5.95603 74.9969 5.63811C74.9969 5.32018 74.9122 5.02346 74.8062 4.93868C74.7002 4.87509 74.6154 5.12943 74.6154 5.48974C74.6366 6.31635 74.3187 6.5283 72.9198 6.5283C71.6905 6.5283 71.5845 6.82503 72.7503 7.03698C73.4921 7.18534 74.5518 6.88861 74.8274 6.46471ZM7.93608 20.9197C2.97646 20.0083 0.687404 18.8638 0.856964 17.4013C0.962939 16.5747 0.878159 16.5323 0.560235 17.2318C-0.393539 19.3512 4.03621 21.3012 10.5855 21.6615C12.3658 21.7675 12.4506 21.7463 11.4121 21.5555C10.7762 21.4495 9.20778 21.1528 7.93608 20.9197ZM76.7985 21.4919C78.5153 21.068 79.8718 20.3474 80.2745 19.6268C80.4228 19.3301 80.5076 18.779 80.444 18.3763C80.3805 17.7404 80.3593 17.7192 80.3381 18.2703C80.2745 19.1605 79.1088 20.199 77.7311 20.6018C75.8023 21.1528 73.7888 21.3648 69.5922 21.386C66.3706 21.4072 65.7983 21.4495 66.7309 21.6191C68.8928 21.9794 75.1453 21.8946 76.7985 21.4919ZM55.8155 34.6116C58.7192 33.9758 60.7115 32.6193 61.093 31.0721C61.1566 30.7753 61.1354 30.2878 61.0506 30.0335C60.8811 29.6096 60.8599 29.6308 60.7327 30.3302C60.6691 30.7753 60.4148 31.39 60.1817 31.7079C58.9735 33.4247 54.459 34.6116 48.6516 34.7388C47.5071 34.7812 46.5109 34.8872 46.4473 34.9931C46.2566 35.3322 54.0987 35.0143 55.8155 34.6116Z" fill="black"/>
<path d="M80.2745 19.6268C79.8718 20.3474 78.5153 21.068 76.7985 21.4919C75.1453 21.8946 68.8928 21.9794 66.7309 21.6191C65.7983 21.4495 66.3706 21.4072 69.5922 21.386C73.7888 21.3648 75.8023 21.1528 77.7311 20.6018C79.1088 20.199 80.2745 19.1605 80.3381 18.2703C80.3593 17.7192 80.3805 17.7404 80.444 18.3763C80.5076 18.779 80.4228 19.3301 80.2745 19.6268Z" fill="white"/>
<path d="M74.9969 5.63811C74.9969 5.95603 74.9122 6.31635 74.8274 6.46471C74.5518 6.88861 73.4921 7.18534 72.7503 7.03698C71.5845 6.82503 71.6905 6.5283 72.9198 6.5283C74.3187 6.5283 74.6366 6.31635 74.6154 5.48974C74.6154 5.12943 74.7002 4.87509 74.8062 4.93868C74.9122 5.02346 74.9969 5.32018 74.9969 5.63811Z" fill="white"/>
<path d="M0.856964 17.4013C0.687404 18.8638 2.97646 20.0083 7.93608 20.9197C9.20778 21.1528 10.7762 21.4495 11.4121 21.5555C12.4506 21.7463 12.3658 21.7675 10.5855 21.6615C4.03621 21.3012 -0.393539 19.3512 0.560235 17.2318C0.878159 16.5323 0.962939 16.5747 0.856964 17.4013Z" fill="white"/>
<path d="M52.6305 29.9797C52.2989 31.2761 48.5456 31.791 46.0213 32.3238C45.8555 32.6079 44.5289 32.6612 46.0213 32.3238C51.0698 32.2172 50.788 31.9509 51.8382 30.5125C52.0409 30.2461 52.262 29.7311 52.3173 29.3582C52.4278 28.7722 52.4463 28.7544 52.5937 29.1096C52.6674 29.3227 52.6858 29.7311 52.6305 29.9797Z" fill="#1C1C1C"/>
<path fill-rule="evenodd" clip-rule="evenodd" d="M51.1914 3.08853C48.2434 3.3549 46.5852 3.79886 45.7929 4.52694C45.2954 4.98864 45.277 5.04192 45.4059 6.30273C45.5349 7.74113 45.3875 8.06077 44.282 8.61126C43.3976 9.03745 40.7628 9.09073 37.8332 8.71781C34.1482 8.23835 27.6257 8.23835 26.6492 8.70005C25.5252 9.25055 25.5437 9.73001 26.7781 11.2217C27.5151 12.1096 27.6625 12.4825 27.423 12.9087C26.9992 13.6723 24.0696 14.0985 21.3427 13.7966C19.0764 13.5302 14.9492 13.5302 13.4199 13.7788C9.51379 14.4536 7.24749 15.8743 7.02639 17.7921C6.78687 19.71 8.18718 21.2904 10.8404 22.1251C13.0514 22.7999 14.0194 22.3579 21.5 22.5C27.783 22.6065 29.155 23.2083 30.0025 23.4747C30.5553 23.6345 31.0896 23.8476 31.1817 23.9186C31.4028 24.1317 31.0477 25.1626 29.5 25.5C27.5285 25.9084 27.3439 25.7963 26.9808 26.9907C26.2018 29.5532 28.8049 28.9619 33.5954 28.802C35.5485 28.731 37.4463 28.7132 37.8148 28.7843L38.4781 28.9086L38.4597 29.9563C38.4044 31.9452 41 32.9999 41 32.9999C41 32.9999 42.7915 35.0585 45.5 34.8276C49.5904 34.4725 52.0962 33.6734 53.3675 32.3238C54.2335 31.3826 54.2704 30.4592 53.4965 29.2694C52.6121 27.9198 51.4697 27.5291 47.2135 27.0852C42.8284 26.6235 46.7496 23.3169 48.5 22.5C50.2504 21.6831 52.8997 21.3785 66 22C72.9278 22.3196 75.8443 22.8354 77.3736 21.3259C77.9816 20.7222 78 20.6511 78 19.3193C78 18.023 77.9631 17.8809 77.3367 16.9753C76.8761 16.3005 76.397 15.8565 75.6969 15.5013C73.8359 14.5247 73.32 14.4536 67.3134 14.4359C61.3437 14.4004 59.7407 14.2228 60.4961 13.6723C60.8646 13.4059 60.5 10.9995 65.8536 11.4995C68.3962 11.7126 68.9674 10.736 67.3092 8.99568L66.5722 8.21433L67.2539 8.09002C67.6592 8.01899 68.82 8.09002 70.0545 8.2676C72.505 8.62276 73.0209 8.51621 73.5 7.53953C73.8869 6.75818 73.7579 5.97683 73.0578 5.03566C72.3576 4.11225 71.7312 3.7038 69.9808 3.029C66.9591 1.85698 63.4073 3.44369 59.2985 3.14181C56.9954 2.98199 52.6839 2.94647 51.1914 3.08853ZM72.5235 6.18992C72.5972 6.06562 72.6709 5.76373 72.6709 5.49736C72.6709 5.23099 72.5972 4.98238 72.505 4.91135C72.4129 4.85808 72.3392 5.07117 72.3392 5.37306C72.3576 6.06562 72.0813 6.2432 70.8652 6.2432C69.7965 6.2432 69.7044 6.49181 70.7178 6.66939C71.3627 6.79369 72.2839 6.54508 72.5235 6.18992ZM13.899 20.5268C9.58749 19.7632 7.59757 18.8043 7.74497 17.579C7.8371 16.8865 7.7634 16.8509 7.48702 17.437C6.65789 19.2128 10.5087 20.8465 16.2021 21.1484C17.7498 21.2372 17.8235 21.2194 16.9207 21.0596C16.3679 20.9708 15.0045 20.7222 13.899 20.5268ZM73.7622 21.0063C75.2547 20.6511 76.4339 20.0474 76.7839 19.4436C76.9129 19.195 76.9866 18.7333 76.9313 18.3959C76.8761 17.8632 76.8576 17.8454 76.8392 18.3071C76.7839 19.0529 75.7706 19.9231 74.5729 20.2605C72.8962 20.7222 71.1459 20.8998 67.4977 20.9175C64.6971 20.9353 64.1996 20.9708 65.0103 21.1128C66.8896 21.4147 72.3251 21.3437 73.7622 21.0063ZM46.0213 32.3238C48.5456 31.791 52.2989 31.2761 52.6305 29.9797C52.6858 29.7311 52.6674 29.3227 52.5937 29.1096C52.4463 28.7544 52.4278 28.7722 52.3173 29.3582C52.262 29.7311 52.0409 30.2461 51.8382 30.5125C50.788 31.9509 51.0698 32.2172 46.0213 32.3238C45.8555 32.6079 44.5289 32.6612 46.0213 32.3238Z" fill="#1C1C1C"/>
<path d="M76.7839 19.4436C76.4339 20.0474 75.2547 20.6511 73.7622 21.0063C72.3251 21.3437 66.8896 21.4147 65.0103 21.1128C64.1996 20.9708 64.6971 20.9353 67.4977 20.9175C71.1459 20.8998 72.8962 20.7222 74.5729 20.2605C75.7706 19.9231 76.7839 19.0529 76.8392 18.3071C76.8576 17.8454 76.8761 17.8632 76.9313 18.3959C76.9866 18.7333 76.9129 19.195 76.7839 19.4436Z" fill="#1C1C1C"/>
<path d="M72.6709 5.49736C72.6709 5.76373 72.5972 6.06562 72.5235 6.18992C72.2839 6.54508 71.3627 6.79369 70.7178 6.66939C69.7044 6.49181 69.7965 6.2432 70.8652 6.2432C72.0813 6.2432 72.3576 6.06562 72.3392 5.37306C72.3392 5.07117 72.4129 4.85808 72.505 4.91135C72.5972 4.98238 72.6709 5.23099 72.6709 5.49736Z" fill="#1C1C1C"/>
<path d="M7.74497 17.579C7.59757 18.8043 9.58749 19.7632 13.899 20.5268C15.0045 20.7222 16.3679 20.9708 16.9207 21.0596C17.8235 21.2194 17.7498 21.2372 16.2021 21.1484C10.5087 20.8465 6.65789 19.2128 7.48702 17.437C7.7634 16.8509 7.8371 16.8865 7.74497 17.579Z" fill="#1C1C1C"/>
<path d="M11.1364 24.7773C7.89354 25.0952 5.90121 25.7522 4.92625 26.812C4.14203 27.6598 4.20562 29.1434 5.07461 29.97C5.62568 30.4999 5.88002 30.5847 6.8126 30.5635C7.70279 30.5635 8.31744 30.3516 9.92826 29.525L11.9418 28.4864L14.3792 28.4652C16.3715 28.4652 16.9438 28.4016 17.4101 28.0837C18.491 27.3843 17.9188 25.6887 16.3927 25.0528C15.4389 24.6501 13.3195 24.5441 11.1364 24.7773ZM5.37134 28.7831C5.88002 29.2706 6.60065 29.3554 8.02071 29.1434C9.18643 28.9527 8.74134 29.313 7.46964 29.5885C6.3887 29.8217 5.39254 29.5461 4.96864 28.8891C4.54474 28.2533 4.75669 28.1897 5.37134 28.7831Z" fill="black"/>
<path d="M5.37134 28.7831C5.88002 29.2706 6.60065 29.3554 8.02071 29.1434C9.18643 28.9527 8.74134 29.313 7.46964 29.5885C6.3887 29.8217 5.39254 29.5461 4.96864 28.8891C4.54474 28.2533 4.75669 28.1897 5.37134 28.7831Z" fill="white"/>
<path d="M51.5 6.50006C54.5564 5.62682 58.3865 5.02285 59.5 8.00006C60.3893 10.3776 56.8728 11.4648 57 14.0001C57.136 16.7093 60.532 17.2876 60.5 20.0001C60.468 22.7125 52.208 18.6576 47 19.5001C42.7332 20.1903 40.6568 24.1848 36.5 23.0001C33.1778 22.0532 29.8385 20.4508 30 17.0001C30.142 13.9658 32.7307 12.7481 35.5 11.5001C39.0649 9.89355 41.8822 13.4834 45.5 12.0001C48.441 10.7942 48.4437 7.3733 51.5 6.50006Z" fill="#282828"/>
</svg>
