<svg width="26" height="26" viewBox="0 0 26 26" fill="none" xmlns="http://www.w3.org/2000/svg">
<path d="M14.1055 25.9703C20.672 25.9703 25.9951 20.1847 25.9951 13.0477C25.9951 5.91067 20.672 0.125 14.1055 0.125H11.8882V25.9703H14.1055Z" fill="#E27500"/>
<path d="M11.8887 1.74414H19.8708C20.5336 2.14447 21.1577 2.61114 21.7349 3.13681H11.8884L11.8887 1.74414Z" fill="#FC942D"/>
<path d="M11.8884 4.74609H23.2162C23.5557 5.18609 23.8679 5.65176 24.1519 6.13876H11.8884V4.74609Z" fill="#FC942D"/>
<path d="M11.8886 7.74805H24.9495C25.1366 8.19938 25.3022 8.66338 25.4414 9.14071H11.8886V7.74805Z" fill="#FC942D"/>
<path d="M11.8884 10.748H25.804C25.8795 11.2044 25.9328 11.669 25.9629 12.1407H11.8881L11.8884 10.748Z" fill="#FC942D"/>
<path d="M11.8885 13.75H25.9771C25.9537 14.2217 25.9056 14.6857 25.8372 15.1427H11.8885V13.75Z" fill="#FC942D"/>
<path d="M11.8886 16.752H25.4966C25.3656 17.2283 25.2111 17.693 25.0326 18.1446H11.8883L11.8886 16.752Z" fill="#FC942D"/>
<path d="M11.8885 19.7539H24.27C23.9974 20.2406 23.6944 20.7046 23.3668 21.1466H11.8882L11.8885 19.7539Z" fill="#FC942D"/>
<path d="M11.8884 22.7559H21.9478C21.4037 23.2755 20.8167 23.7425 20.1914 24.1485H11.8884V22.7559Z" fill="#FC942D"/>
<path d="M7.60026 25.0991C1.47638 22.524 -1.5674 15.0408 0.801774 8.38488C3.17095 1.72893 10.0559 -1.57932 16.1798 0.995705C22.3037 3.57073 25.3475 11.0539 22.9783 17.7099C20.6091 24.3658 13.7241 27.6741 7.60026 25.0991Z" fill="#FFD700"/>
<path d="M11.8882 23.6527C6.49905 23.6527 2.13031 18.9044 2.13031 13.0471C2.13031 7.18972 6.49905 2.44141 11.8882 2.44141C17.2773 2.44141 21.646 7.18972 21.646 13.0471C21.646 18.9044 17.2773 23.6527 11.8882 23.6527Z" fill="#E27500"/>
<path d="M12.738 22.7292C7.81822 22.7292 3.82997 18.3945 3.82997 13.0472C3.82997 7.70001 7.81822 3.36523 12.738 3.36523C17.6577 3.36523 21.646 7.70001 21.646 13.0472C21.646 18.3945 17.6577 22.7292 12.738 22.7292Z" fill="#FFA600"/>
</svg>
